/* XPM */
static char *e2c71376c65f435ad832440ff511d36d[] = {
/* columns rows colors chars-per-pixel */
"64 64 176 2 ",
"   c #020102",
".  c #0B0106",
"X  c #070608",
"o  c #090709",
"O  c #0C0B0D",
"+  c #11060C",
"@  c #150A0C",
"#  c #180D0F",
"$  c #0F0E10",
"%  c #110E11",
"&  c #131314",
"*  c #1B1316",
"=  c #171718",
"-  c #181719",
";  c #171819",
":  c #1B1A1C",
">  c #20161A",
",  c #231A1D",
"<  c #281D1F",
"1  c #1F1E20",
"2  c #221E22",
"3  c #291F23",
"4  c #1F2023",
"5  c #232324",
"6  c #292224",
"7  c #272728",
"8  c #2B252A",
"9  c #2B2B2C",
"0  c #312526",
"q  c #32272B",
"w  c #332B2C",
"e  c #2F2F30",
"r  c #342E32",
"t  c #382F37",
"y  c #333334",
"u  c #3A3336",
"i  c #373739",
"p  c #3B353A",
"a  c #3B3B3C",
"s  c #40373E",
"d  c #44383C",
"f  c #503C3A",
"g  c #50403F",
"h  c #3F3F40",
"j  c #443D42",
"k  c #493E46",
"l  c #4A3F48",
"z  c #3F4041",
"x  c #424243",
"c  c #4B4046",
"v  c #474648",
"b  c #494649",
"n  c #4C4A4C",
"m  c #554544",
"M  c #524A49",
"N  c #5D4D4C",
"B  c #4F4E50",
"V  c #514F51",
"C  c #535154",
"Z  c #575658",
"A  c #595659",
"S  c #5C5A5C",
"D  c #62504E",
"F  c #6A5B56",
"G  c #6E615E",
"H  c #72615C",
"J  c #79625C",
"K  c #5F5D60",
"L  c #615F61",
"P  c #646365",
"I  c #676668",
"U  c #686769",
"Y  c #6C6B6D",
"T  c #726461",
"R  c #7B6C6A",
"E  c #6F6D70",
"W  c #716E71",
"Q  c #6F7070",
"!  c #747375",
"~  c #787677",
"^  c #777678",
"/  c #79777A",
"(  c #7C7B7C",
")  c #826D67",
"_  c #836F6B",
"`  c #89736F",
"'  c #837572",
"]  c #8E7D7A",
"[  c #937C74",
"{  c #91807C",
"}  c #99867F",
"|  c #7F7D80",
" . c #807E81",
".. c #838384",
"X. c #888887",
"o. c #878788",
"O. c #888688",
"+. c #8C8C8C",
"@. c #9D8680",
"#. c #9E8B86",
"$. c #9D8F8A",
"%. c #90908F",
"&. c #8F8F90",
"*. c #8F9090",
"=. c #949494",
"-. c #989797",
";. c #979897",
":. c #989897",
">. c #989798",
",. c #9C9C9C",
"<. c #AA958E",
"1. c #A89792",
"2. c #B39C95",
"3. c #B89B91",
"4. c #B69F98",
"5. c #A0A09F",
"6. c #AAA09D",
"7. c #BCA39C",
"8. c #9F9FA0",
"9. c #A09FA0",
"0. c #A4A4A4",
"q. c #A7A8A7",
"w. c #A8A8A7",
"e. c #A7A7A8",
"r. c #ACACAC",
"t. c #B0AFAF",
"y. c #B0B0AF",
"u. c #B4B4B4",
"i. c #B8B8B7",
"p. c #BBBBBB",
"a. c #C0A49B",
"s. c #C5AAA3",
"d. c #C5B0A7",
"f. c #C6B2AC",
"g. c #CCB6AD",
"h. c #D0B1A5",
"j. c #C0C0BF",
"k. c #D4C3BD",
"l. c #DBC3BA",
"z. c #E3C5BA",
"x. c #BFC0C0",
"c. c #C3C3C3",
"v. c #C8C7C7",
"b. c #C7C7C8",
"n. c #CBCBCB",
"m. c #DCC7C0",
"M. c #DCCFCA",
"N. c #D4D4D4",
"B. c #D8D8D7",
"V. c #DCDCDC",
"C. c #E3CCC3",
"Z. c #EED2C6",
"A. c #E2D1CB",
"S. c #E8D3C9",
"D. c #F0D6CA",
"F. c #E7D8D1",
"G. c #E9D9D1",
"H. c #F3DFD6",
"J. c #EEE3DC",
"K. c #F7E0D7",
"L. c #F4E5DE",
"P. c #DFDFE0",
"I. c #E4E4E4",
"U. c #EFE6E0",
"Y. c #E8E8E7",
"T. c #EAEAEA",
"R. c #F3E7E1",
"E. c #F4E9E3",
"W. c #FCECE5",
"Q. c #FAEEE9",
"!. c #F0F0EF",
"~. c #FFF3EB",
"^. c #F2F2F2",
"/. c #FFF6F1",
"(. c #F8F8F7",
"). c #FCFCFC",
/* pixels */
"C B n n n n B B B n B n B B n b b b M n n n b n n n n b v x a a u a d v B Z S S S L W L p p t w H e ..O.+.+.%.%.=.=.:.,.,.9.,.r.",
"B B B C C B V C V C Z C V V Z V C B B B B n n n v x h e 5 : : : : 1 5 7 e i B S U Y b 8 p l % } l., ] -.:.,.,.9.5.0.e.r.t.t.y.u.",
"B C C C C Z C C C A C C C C C V B C C C B n z y 7 : : = & & & & & & & : 1 5 7 i j 8 6 j b 2 > S.A.d E ,.,.,.9.0.0.w.w.r.y.y.y.u.",
"B B B C C C C C C C C C Z C C C C C B B z 9 1 = & & & & & & = & = & & = & : - & 2 s l k q   H Q.f.# Y ;.>.,.,.9.0.0.w.r.r.r.y.y.",
"n n b n n B B B B V V V V V V V B B M y 1 : & & & & & & & $ & & & = & = = o * y l l j 2 o o 7.Q.J.q S -.=.,.9.,.,.8.0.0.0.e.r.i.",
"b b b b b b b b n b B B n n V V n n e : ; & $ & & & $ & & & & & & & & & $ 6 k b j w * o   f K.k.4.N Z =.%.%.-.>.:.:.:.,.0.r.i.p.",
"B n b b v v v b b n n B B b b b v 9 1 ; $ $ & & & & $ & & & & & & & & % 5 t r 6 & o o % @ 3.Q.R.H @ L %.+.%.%.=.:.;.>.,.w.i.i.c.",
"B B b b v b p p u 8 9 y a j j j 9 1 ; $ & & $ & & & & & & & & = = = = & = % & + o o O   J L.U.z.d.0 I +.%.%.%.=.>.>.>.8.t.i.p.p.",
"V V n n B j * 3 8 p q 3 3 2 2 2 = & $ o O & $ & $ & & & & ; & & & & = & & = = - - - o m H.E.Q.M.< + ~ &.&.=.=.:.,.,.,.0.t.u.i.p.",
"C Z C V A x * <.F & p b l l j p s u t r 2 $ & & & & & $ & & & ; & & & & = & & & = - 9 A.Q.E.S.W.' % X.&.:.w.w.q.e.w.r.r.y.u.u.i.",
"A A A A A V 6 G l.)   & q h j l c c d u , & $ $ & & & & & & & & & & = & & = = = ; ; - 6.~.R.C.h.2.9 >.:.0.w.r.y.y.u.u.u.u.u.i.p.",
"A S S A S L > M k.K.[ o   % - > 6 , & O $ $ & & $ & & & & & & & & = & & & & = = = - * u F.L.Z.D q S &.*.:.,.e.w.t.y.u.i.i.i.p.c.",
"A S S S A K a # <.W.K.3.q     o o O & & & $ & & & ; & & & & & & = = & = & = & = ; - ; : M d.z.a.> I  .O.&.&.:.e.r.r.y.u.u.i.i.p.",
"C B C V B B b * _ g.J.L.C.` 3   $ : & & & $ & & & ; ; & & & & ; & & = & & = = = = = = 4 5 1 M m 3 C /  .o.+.*.8.r.t.u.u.u.u.u.i.",
"b b b b b n B q   { ~.F.R.Q.F.] : : & & $ $ & # & : ; & & & ; & & & * & = & = & = = = & 5 5 : : 5 a ~  .o.+.&.,.8.r.r.r.y.t.y.u.",
"n n n b b b B b . R <.m.E.J./.k.; ; : & & & & & & : : & & & & & & = = = = = = = = = = = - 5 : 9 e 8 U  .o.+.=.;.;.8.e.e.r.r.r.u.",
"n b B n n n n C q   g Q.E.J.W.$.$ : - & & $ = & & : 1 & & & & & = & = = = = = = & = = = = 1 : 1 e 7 C ..+.%.%.=.;.;.;.,.5.0.w.y.",
"B C C A A A C C B * #.l.C.E.D.G $ - = $ $ & & $ $ ; : & & & & & & = = = = = = & = = ; ; ; ; : = 8 9 a &.,.,.,.5.,.,.,.,.,.5.0.w.",
"A S L L I P L L P b @ @ 7.W.z.u $ & = & $ & & & & ; & ; & & & & & = & = & & = & = = = = : = = : 5 e e ..5.8.q.e.w.0.0.,.,.5.0.e.",
"S L I I P Y E Y I U s   ' W.@.$ & $ & $ & & & $ $ & & & & & : ; & & = = & : : = : = = = = = = : : e 7 I 0.0.q.q.r.e.e.0.0.0.0.e.",
"L P Y Y E W W E Y U U : m s.5 O & $ & $ $ & & $ & & & & & $ 4 7 % = & = = 4 y = = = = = = ; = : : 9 7 v ,.0.q.r.r.t.y.r.r.y.u.i.",
"E ! W W W ! ! ^ ^ ^ Y 9 * - & & $ & $ $ & & & $ 1 ; $ ; & & ; B = = = = = 7 C & : = = = = = = : : 7 e y X.,.0.y.y.i.i.i.p.p.x.c.",
"W ! ! Y Y U Y Y E W U e 2 = : $ $ & $ & & & & & e e O ; & 5 7 ~ x O & : : h ..1 1 = = = : = ; : : 5 e 9 ( r.y.u.i.i.p.c.x.p.p.x.",
"P I P K L K K K S L S e 7 ; = % $ $ $ & $ & & 5 S Q X & & ; ..L =.$ 7 : & K B.I O = 9 : ; ; : & : 4 y 7 Y i.u.u.i.i.p.p.i.y.y.i.",
"U U Y P K K A A K P A r 7 : = & & $ & $ $ ; 1 S Q y.$ 9 ; O +.0.t...Z = 9 u.T.n.;.e.o.1 ; : : C 4 : e 9 V r.u.u.u.i.i.i.i.u.t.u.",
"^ ^ | ' / ! ! E E ! P r 7 = & % $ & & $ $ : e X.( v.i n C   y P.N.P.x.p.P.I.n.P.!.!.u.5 : : & &.Z & e 9 z 8.t.t.t.t.r.t.y.t.t.u.",
"| | | |  .| | ! / | ! t e : & $ & $ $ $ $ 1 n +.0.v.i.( i...q.P.T.I.T.N.e.U B x a n Q i & ; : 8.^ & 9 e i &.t.r.r.e.r.r.r.t.t.u.",
"W ! | |  . . .| ^ / | h i 1 = % $ $ & & $ e +.q.n.n.n.n.P.!.!.I.I.Y.Y.^ O & & O X 8.!.A X U h =.I $ 9 y e ..i.u.u.y.t.t.t.u.i.p.",
"I P I I E W E E Y E W l h : = % $ & & & O e r.u.n.j.u.j.P.P.I.Y.I.Y.I.p.h z V z Z b.).K   i.Q ..z ; 5 y y ! i.u.i.i.p.i.u.i.p.x.",
"U I P I K K L P I I I b e 1 = % $ $ $ & $ L q. .v 7 ; 9 i.Y.B.P.Y.Y.Y.(.b.Q ^ r.p.b.^.B 7 n.n.K 4 4 5 a y P p.i.p.p.x.x.x.x.x.x.",
"|  .^ W E U I K P P P B 5 1 = O e 5 $ $ ; z 5   1 ; O 1 n.Y.P.B.Y.I.Y.P.!.I.P.Y.T.!.T.y n B.!.o.4 4 5 a i V i.i.p.x.x.x.x.c.c.b.",
" . .O. . . . .| ! Y U A e : : X M i O & O I q.e I v L ..B.I.P.I.I.Y.Y.Y.Y.T.T.T.Y.!.B.4 &.N.Y.u.z : 4 a i v t.i.i.i.p.p.x.c.x.b.",
"O.&.&.&.X.X.X...X...( U i ; ; O i i O & X ! P.! S { i.N.V.P.P.I.I.I.I.T.T.Y.T.T.Y.^.u.1 n.N.Y.n.Q : 7 i z n 8.u.u.u.u.i.i.x.x.x.",
"=.,.:.;.=.=.X.........! y ; ; $ : B $ & O i x.x.n.B.V.V.P.P.P.I.I.Y.Y.I.Y.T.T.T.Y.(.+.= N.n.P.N.x.y 4 a v S =.y.y.u.u.u.i.i.p.x.",
"=.0.0.0.5.:.&.%.X.....^ e : : & $ 7 ; & & ; 8.B.N.N.B.V.P.P.I.I.B.P.T.Y.T.T.I.T.Y.!.V z V.V.Y.b.I.v 4 h B L *.i.u.u.i.i.p.p.x.c.",
",.e.w.w.w.e.0.e.r.r.r.%.y ; : & & $ & & $ a ! n.N.N.B.V.V.P.P.Y.N.V.Y.Y.T.I.T.T.^.x.B | V.N.P.N.x.5 5 a S ^ ,.x.x.p.x.x.p.x.c.b.",
"r.y.r.w.e.e.8.e.t.y.u.=.e ; 1 ; $ & & & $ e =.y.N.N.B.B.V.P.P.P.I.I.I.T.I.I.T.I.^.*.8.U Y.N.B.N.e.4 9 i I | q.x.p.p.p.j.c.n.b.n.",
"0.w.w.e.8.8.;.0.r.y.u.,.e 7 : ; & $ $ & & : ( x.n.N.B.B.V.P.P.P.I.I.I.I.T.T.T.T.V.c.x.i.^.I.I.n.8.7 9 a ( ..r.i.i.p.p.c.b.n.n.n.",
"+.e.y.u.u.u.u.u.i.i.i.e.e z 1 : & & & & $ & ; o.B.n.N.B.V.V.P.P.I.I.I.T.I.T.T.T.Y.Y.N.^.Y.!.I.p.( : h n *.;.u.i.p.p.j.c.c.b.n.n.",
"( :.w.y.u.u.i.p.p.x.p.p.z I y ; ; & $ $ & & $ ; u.B.N.B.B.V.P.P.I.P.V.V.I.T.I.T.Y.N.Y.T.T.Y.!.n.y e S Y r.u.p.i.p.j.j.j.c.b.b.v.",
"..&.,.0.w.w.e.e.r.i.i.c.U ^ P & ; & & $ & & & $ y j.P.N.N.V.V.I.P.P.I.P.I.Y.Y.T.n.P.T.T.T.I.).*.& e y h L ( 0.j.p.j.c.c.j.c.c.b.",
"=.,.:.=.,.5.,.,.q.r.y.i.=.! 5.1 ; & & $ $ & $ ; O 9 ;.B.P.B.B.V.P.P.I.Y.Y.Y.T.b.P.!.T.T.Y.^.n.y 4 5 7 y y y z ^ p.x.c.c.c.n.n.n.",
"e.w.w.e.e.r.y.i.i.u.u.p.u.*.c.( ; ; $ $ & & & & ; & $ z ,.B.Y.I.P.P.P.P.T.Y.n.N.T.Y.T.Y.(.i.7 : 5 7 i i a h x a Y x.c.c.b.n.N.N.",
",.q.0.,.8.r.i.i.p.p.i.u.p.5.I z 1 ; ; & & & $ & & & : 4 O y ( u.P.T.T.T.P.x.V.!.Y.Y.Y.^.c.e : 5 5 y i i i a a x a X.n.c.b.n.N.B.",
"=.:.:.:.:.0.r.i.p.u.y.y.~ 5 & ; : : ; : ; & & & : ; y Y C : i x h ^ u.x.N.P.Y.Y.Y.T.Y.x.=.n 4 4 9 y i i a a a z h C j.n.n.v.n.N.",
",.8.,.,.,.,.,.0.r.r.i...; ; 1 1 : 1 : : : : ; ; ; y  .+.X.( | %.U 7 $ Q !.I.Y.Y.I.N.e.8.i.n : 9 e y i i a a a a x x 0.B.N.N.n.N.",
"r.r.q.e.0.0.0.e.q.q.0.y & 1 : : 1 : : : : 1 1 1 & P n.0.o.X.;.=.8.0.U 0.!.P.Y.P.p.o.8.i.8.9 4 e y y i i i a a a x a o.V.N.N.N.B.",
"y.i.i.i.u.y.r.r.y.i.~ & : ; : : : 1 1 : 1 : 1 5 & ..V.u.+./  .8.+.0.y.e.V.I.I.N.e...u.u.( 1 7 y y y i a a a a a x h E N.N.N.B.B.",
"p.b.b.b.c.p.p.i.i.j.B & : : : : : 1 : : 1 1 1 5 & Q B.n.0.X.^ i.5.q.q.0.N.I.I.I.Y.^ x ..n : e y y y i i a i i h x z S N.B.B.B.P.",
"p.b.c.j.p.p.p.i.p.u.e = - & : : : : 1 : 1 : 1 1 ; v n.n.N.n.=.y.n.q.r.0.p.Y.P.Y.Y.A 4 y 5 7 e e y y i i a y a h x x C n.B.V.V.V.",
"i.j.p.j.p.p.p.i.p.5.5 - : & ; : : : 1 : : 1 1 1 : 9 p.N.N.x.b.,.u.c.q.0.q.I.I.x.L 9 e 7 1 9 y y y i i i y a a z h x C c.V.V.V.P.",
"p.b.c.c.b.c.c.c.b.,.- : : : & : : : : 1 1 : 1 1 1 1 q.n.*.( o.;.y.c.i.P A i...i 5 e e 9 5 9 e e y y i y y a a z z x n j.V.V.V.P.",
"j.v.v.b.n.b.n.b.N.8.; : : ; ; : : : : : 1 ; 1 1 4 : ..B Y q...z z 0.+.: e n 7 9 e 9 e 9 9 9 e y y y y y i a a a z x n j.P.B.V.P.",
"c.n.n.n.n.n.n.n.N.,.& - : : ; ; : : : 1 1 1 : : 1 1 7 & ( V.r.Q ; Y x : 5 5 9 9 9 9 9 7 e 9 e e e y y y a i a a z z n j.V.V.V.I.",
"c.n.n.n.n.n.n.n.B.0.; : : : - - : : : : ; 1 1 1 1 1 1 & C i.i.r.z K h 5 9 7 7 9 9 9 4 7 e 9 9 e e y y i i e y z z x B c.P.V.I.I.",
"c.N.N.N.N.N.N.N.V.r.; : ; - : - ; : : ; & : ; 1 1 1 5 e a x v P C 1 e 5 7 7 7 7 4 : 5 9 e 9 7 7 y e y y y 9 e a h x b c.Y.P.I.I.",
"n.N.B.N.B.B.N.N.N.p.5 & : : ; : ; : ; & = : : 1 : 7 i a x x v x v v e 4 7 5 1 : : 1 9 9 e 7 : 5 e e i y e 9 y a a x b b.T.I.Y.Y.",
"n.B.N.N.N.N.V.N.V.i.1 = : : ; : ; ; = & & , : 1 1 7 i a h x v a y y 5 5 5 1 : : 4 7 9 9 e 7 5 7 e e e y 9 9 a a z x n n.!.I.Y.Y.",
"N.V.P.V.P.V.V.B.I.Z O 1 = ; : = : = & & ; : 1 1 : 1 i a a z y 1 4 1 5 5 5 : : 1 5 9 9 9 9 5 7 7 e 7 e i 9 e a h h x n b.T.Y.Y.T.",
"N.P.I.P.I.P.P.Y.b.1 & ; = : ; : : ; & & & 1 : : 1 : 7 i a h i y 5 : 5 5 1 ; : 5 7 9 9 9 9 7 e 7 5 7 y e 9 a y h a z x c.!.I.Y.T.",
"B.I.I.I.I.I.P.T.w.& = & & ; : : : ; & $ ; ; ; 1 1 : : y a a x i e 9 1 5 1 ; 1 7 9 7 9 9 9 9 e 7 4 e e e e i i a h h P P.Y.Y.T.T.",
"N.I.Y.P.I.I.P.!.t.& = = & = ; ; ; : = & ; 1 : : : 1 : e a a a a i 5 1 5 1 1 7 7 7 7 7 9 9 9 e 7 5 i e e y i i a h e >.^.I.Y.Y.Y.",
"N.I.I.I.Y.I.I.Y.N.5 & = & & = ; ; ; & $ & : ; 1 : : : 9 i a a i 5 : : 1 1 5 5 7 5 9 7 7 7 7 e 9 9 e e e y i i i y e c.!.T.T.T.T.",
"I.Y.Y.Y.Y.Y.Y.I.!.P $ 1 : - : 1 1 1 1 ; : 5 1 5 5 5 5 7 a a z 7 5 7 5 1 5 7 7 9 9 9 e e e e e i e y e a i i h y 9 A T.T.T.T.T.T."
};
