/* XPM */
static char *_a0fe1f0964d48a1bd5cb41e77998400[] = {
/* columns rows colors chars-per-pixel */
"64 64 113 2 ",
"   c #000000",
".  c #0A0500",
"X  c #0F0800",
"o  c #130A00",
"O  c #1A0E00",
"+  c #1E1000",
"@  c #241300",
"#  c #2A1600",
"$  c #2E1900",
"%  c #341B00",
"&  c #391E00",
"*  c #3E2100",
"=  c #432400",
"-  c #492700",
";  c #472A00",
":  c #4D2A00",
">  c #532D00",
",  c #592F00",
"<  c #4E3000",
"1  c #563200",
"2  c #5B3300",
"3  c #5D3A01",
"4  c #613500",
"5  c #633C01",
"6  c #6A3E01",
"7  c #654101",
"8  c #6C4301",
"9  c #6E4B02",
"0  c #744501",
"q  c #794601",
"w  c #754C02",
"e  c #7B4C01",
"r  c #7B5202",
"t  c #7D5B03",
"y  c #835402",
"u  c #895602",
"i  c #835C03",
"p  c #8A5B02",
"a  c #925C02",
"s  c #9F5F02",
"d  c #876103",
"f  c #8C6203",
"g  c #8C6B04",
"h  c #936503",
"j  c #9D6603",
"k  c #946B03",
"l  c #9B6C03",
"z  c #967304",
"x  c #9B7404",
"c  c #9F7A05",
"v  c #A46402",
"b  c #AE6602",
"n  c #AC6C03",
"m  c #BB6600",
"M  c #B66C01",
"N  c #BD6B01",
"B  c #A47404",
"V  c #AB7203",
"C  c #A57C04",
"Z  c #AA7D04",
"A  c #B47102",
"S  c #BE7402",
"D  c #B57903",
"F  c #BC7B03",
"G  c #C46C01",
"H  c #CB6E00",
"J  c #C37401",
"K  c #CB7201",
"L  c #C37B02",
"P  c #CB7C01",
"I  c #D17101",
"U  c #D47C00",
"Y  c #DA7F00",
"T  c #9F8105",
"R  c #A68005",
"E  c #AC8405",
"W  c #AD8B06",
"Q  c #B38305",
"!  c #BD8304",
"~  c #B38B05",
"^  c #BB8C06",
"/  c #B49206",
"(  c #BB9507",
")  c #BE9C07",
"_  c #BE9F08",
"`  c #BDA008",
"'  c #C58303",
"]  c #CB8403",
"[  c #C38B05",
"{  c #CA8B04",
"}  c #D48501",
"|  c #DB8400",
" . c #D38802",
".. c #DB8B01",
"X. c #C49306",
"o. c #CB9405",
"O. c #C49C07",
"+. c #CB9D07",
"@. c #D09204",
"#. c #E18600",
"$. c #EB8700",
"%. c #E68A00",
"&. c #EB8B00",
"*. c #EE9000",
"=. c #C6A107",
"-. c #CCA307",
";. c #C5A408",
":. c #CBA508",
">. c #C6A808",
",. c #CBAC09",
"<. c #D0A007",
"1. c #D0AA08",
"2. c None",
/* pixels */
"2.2.2.2.2.2.2.2.2.2.2.2.2.2.2.2.2.2.2.2.2.2.2.2.2.2.2.2.2.2.2.2.2.2.2.2.2.2.2.2.2.2.2.2.2.2.2.2.2.2.2.2.2.2.2.2.2.2.2.2.2.2.2.2.",
"2.2.2.2.2.2.2.2.2.2.2.2.2.2.2.2.2.2.2.2.2.2.2.2.2.2.2.2.2.2.2.2.2.2.2.2.2.2.2.2.2.2.2.2.2.2.2.2.2.2.2.2.2.2.2.2.2.2.2.2.2.2.2.2.",
"2.2.2.2.2.2.2.2.2.2.2.2.2.2.2.2.2.2.2.2.2.2.2.2.2.2.2.2.2.2.2.2.2.2.2.2.2.2.2.2.2.2.2.2.2.2.2.2.2.2.2.2.2.2.2.2.2.2.2.2.2.2.2.2.",
"2.2.2.2.2.2.2.2.2.2.2.2.2.2.2.2.2.2.2.2.2.2.2.2.2.2.2.2.2.2.2.2.2.2.2.2.2.2.2.2.2.2.2.2.2.2.2.2.2.2.2.2.2.2.2.2.2.2.2.2.2.2.2.2.",
"2.2.2.2.2.2.2.2.2.2.2.2.2.2.2.2.2.2.2.2.2.2.2.2.2.2.N G I I G G H G N N G m N 2.2.2.2.2.2.2.2.2.2.2.2.2.2.2.2.2.2.2.2.2.2.2.2.2.",
"2.2.2.2.2.2.2.2.2.2.2.2.2.2.2.2.2.2.2.2.2.2.2.G G H G N b s v s s b v n A S J N 2.2.2.2.2.2.2.2.2.2.2.2.2.2.2.2.2.2.2.2.2.2.2.2.",
"2.2.2.2.2.2.2.2.2.2.2.2.2.2.2.2.2.2.2.2.2.2.m G H M s y 5 3 5 3 1 8 8 7 w f B D J M 2.2.2.2.2.2.2.2.2.2.2.2.2.2.2.2.2.2.2.2.2.2.",
"2.2.2.2.2.2.2.2.2.2.2.2.2.2.2.2.2.2.2.2.m I H b y 8 7 2 & # * % @ = > : 2 6 w g Z ' L 2.2.2.2.2.2.2.2.2.2.2.2.2.2.2.2.2.2.2.2.2.",
"2.2.2.2.2.2.2.2.2.2.2.2.2.2.2.2.2.2.2.G I G s y 5 * & = % O @ O . X O @ % : 2 6 y x [ ' N 2.2.2.2.2.2.2.2.2.2.2.2.2.2.2.2.2.2.2.",
"2.2.2.2.2.2.2.2.2.2.2.2.2.2.2.2.2.2.G I m a 7 * & # O @ O .           . X @ % : 1 8 p Z [ L 2.2.2.2.2.2.2.2.2.2.2.2.2.2.2.2.2.2.",
"2.2.2.2.2.2.2.2.2.2.2.2.2.2.2.2.2.H H b u 5 & o . . .                       O $ % * 3 t R o.' 2.2.2.2.2.2.2.2.2.2.2.2.2.2.2.2.2.",
"2.2.2.2.2.2.2.2.2.2.2.2.2.2.2.2.G H b u 2 # X .                             . X # - > 4 r C <.] 2.2.2.2.2.2.2.2.2.2.2.2.2.2.2.2.",
"2.2.2.2.2.2.2.2.2.2.2.2.2.2.2.I I b y 2 & @ o                                   . O # % 2 y Z +.L 2.2.2.2.2.2.2.2.2.2.2.2.2.2.2.",
"2.2.2.2.2.2.2.2.2.2.2.2.2.2.G G M u 6 = # O o                                     . @ % * 3 i ~ X.2.2.2.2.2.2.2.2.2.2.2.2.2.2.2.",
"2.2.2.2.2.2.2.2.2.2.2.2.2.2.H G a 7 = * @ .                                         X $ : 2 w x O.' 2.2.2.2.2.2.2.2.2.2.2.2.2.2.",
"2.2.2.2.2.2.2.2.2.2.2.2.2.m K n y 1 % O .                                             + & > 4 y C +.P 2.2.2.2.2.2.2.2.2.2.2.2.2.",
"2.2.2.2.2.2.2.2.2.2.2.2.2.K K a 3 & O                                                 . + = > 8 g ( [ 2.2.2.2.2.2.2.2.2.2.2.2.2.",
"2.2.2.2.2.2.2.2.2.2.2.2.N K V r ; o                                                     . # : , w c O.L 2.2.2.2.2.2.2.2.2.2.2.2.",
"2.2.2.2.2.2.2.2.2.2.2.2.N S a 5 $ @ .                                                       o = 6 h ( [ K 2.2.2.2.2.2.2.2.2.2.2.",
"2.2.2.2.2.2.2.2.2.2.2.m H V y 2 # .                                                         . @ : r C X.J 2.2.2.2.2.2.2.2.2.2.2.",
"2.2.2.2.2.2.2.2.2.2.2.G G j 8 & O                                                             o - 0 l ( L 2.2.2.2.2.2.2.2.2.2.2.",
"2.2.2.2.2.2.2.2.2.2.2.K A p 6 # .                                                             . % 6 h / X.U 2.2.2.2.2.2.2.2.2.2.",
"2.2.2.2.2.2.2.2.2.2.G G j e : % O                                                               # 2 y E O.P 2.2.2.2.2.2.2.2.2.2.",
"2.2.2.2.2.2.2.2.2.2.N J a q 4 - O                                                               o - q x =.L 2.2.2.2.2.2.2.2.2.2.",
"2.2.2.2.2.2.2.2.2.2.G A p 6 > = o                                                               O = 6 h _ [ 2.2.2.2.2.2.2.2.2.2.",
"2.2.2.2.2.2.2.2.2.2.J D p 4 : #                                                                 O : 5 a ~ o.P 2.2.2.2.2.2.2.2.2.",
"2.2.2.2.2.2.2.2.2.N J V u , $ .                                                                 o - 1 e Z ,.P 2.2.2.2.2.2.2.2.2.",
"2.2.2.2.2.2.2.2.2.m J V y > @                                                                   . & 2 q l O.' 2.2.2.2.2.2.2.2.2.",
"2.2.2.2.2.2.2.2.2.N P B 0 * o                                                                   . # : q k O.] 2.2.2.2.2.2.2.2.2.",
"2.2.2.2.2.2.2.2.2.N ] l 3 @ o                                                                     # * y x ( ' 2.2.2.2.2.2.2.2.2.",
"2.2.2.2.2.2.2.2.2.N L h 5 % #                                                                     @ * q x _ ' 2.2.2.2.2.2.2.2.2.",
"2.2.2.2.2.2.2.2.2.S ' f 5 % @ .                                                                   @ - 0 k ;.] 2.2.2.2.2.2.2.2.2.",
"2.2.2.2.2.2.2.2.2.L ' f 1 # X                                                                     $ 4 q h ( ' 2.2.2.2.2.2.2.2.2.",
"2.2.2.2.2.2.2.2.2.J ' k 7 = O                                                                     @ 4 q h ( { $.2.2.2.2.2.2.2.2.",
"2.2.2.2.2.2.2.2.2.M L l e 6 $                                                                     + 2 q f ( { $.2.2.2.2.2.2.2.2.",
"2.2.2.2.2.2.2.2.2.N L l 0 < %                                                                     + > 8 k ;.{ $.2.2.2.2.2.2.2.2.",
"2.2.2.2.2.2.2.2.2.2.] B w : $                                                                     # 2 e l ;.] 2.2.2.2.2.2.2.2.2.",
"2.2.2.2.2.2.2.2.2.2.] Z w = $ X                                                                 . = : e C =.} 2.2.2.2.2.2.2.2.2.",
"2.2.2.2.2.2.2.2.2.2.] D w : @ .                                                                 + = 5 u ^ -.Y 2.2.2.2.2.2.2.2.2.",
"2.2.2.2.2.2.2.2.2.2.] ^ f 2 # .                                                               . # % 5 j ( X.Y 2.2.2.2.2.2.2.2.2.",
"2.2.2.2.2.2.2.2.2.2.J [ g 5 - O                                                               . $ : q B ,.] | 2.2.2.2.2.2.2.2.2.",
"2.2.2.2.2.2.2.2.2.2.J { C r > % .                                                           . O % : e C =.J 2.2.2.2.2.2.2.2.2.2.",
"2.2.2.2.2.2.2.2.2.2.2.] Q i 3 1 % .                                                         . @ * > y / 1.U 2.2.2.2.2.2.2.2.2.2.",
"2.2.2.2.2.2.2.2.2.2.2.L [ h 5 * & @                                                           + * 7 h :.+.%.2.2.2.2.2.2.2.2.2.2.",
"2.2.2.2.2.2.2.2.2.2.2.2.@.E y 2 = $ o                                                       + : 1 e E ,.' 2.2.2.2.2.2.2.2.2.2.2.",
"2.2.2.2.2.2.2.2.2.2.2.2.] X.h 8 1 > % o                                                   o % : 0 h O.=.U 2.2.2.2.2.2.2.2.2.2.2.",
"2.2.2.2.2.2.2.2.2.2.2.2.L X.B e 4 : * @ .                                               . + # : y Z ;.' 2.2.2.2.2.2.2.2.2.2.2.2.",
"2.2.2.2.2.2.2.2.2.2.2.2.2.] ^ a 6 - % @ .                                                 o = 0 x ;.X.U 2.2.2.2.2.2.2.2.2.2.2.2.",
"2.2.2.2.2.2.2.2.2.2.2.2.2.L o.Z y 5 * # # X .                                         . @ = 2 i ( ,.U 2.2.2.2.2.2.2.2.2.2.2.2.2.",
"2.2.2.2.2.2.2.2.2.2.2.2.2.2.[ +.C u 0 4 = $ # + .                                   X @ * < 9 T >.[ #.2.2.2.2.2.2.2.2.2.2.2.2.2.",
"2.2.2.2.2.2.2.2.2.2.2.2.2.2.2.[ O.z q 1 - & @ X                                   . @ % = 5 f _ :.U 2.2.2.2.2.2.2.2.2.2.2.2.2.2.",
"2.2.2.2.2.2.2.2.2.2.2.2.2.2.2.M ! Q f 0 > & @ .                               X + % = = 5 d / :.] 2.2.2.2.2.2.2.2.2.2.2.2.2.2.2.",
"2.2.2.2.2.2.2.2.2.2.2.2.2.2.2.2.A X.~ f 5 : = % O . .                     X @ & % * = 1 t W ,.[ %.2.2.2.2.2.2.2.2.2.2.2.2.2.2.2.",
"2.2.2.2.2.2.2.2.2.2.2.2.2.2.2.2.2.L +./ d 3 = $ % $ @ .               . O @ % * = * 1 d W ,.[ %.2.2.2.2.2.2.2.2.2.2.2.2.2.2.2.2.",
"2.2.2.2.2.2.2.2.2.2.2.2.2.2.2.2.2.I ' 1./ f 7 ; = - * $ @ . .   . . o O $ * * = 1 8 d / ,.@.&.2.2.2.2.2.2.2.2.2.2.2.2.2.2.2.2.2.",
"2.2.2.2.2.2.2.2.2.2.2.2.2.2.2.2.2.2.2.' :.( z w 5 : = - = % $ % # $ * * * : > 3 w z ` ,.{ %.2.2.2.2.2.2.2.2.2.2.2.2.2.2.2.2.2.2.",
"2.2.2.2.2.2.2.2.2.2.2.2.2.2.2.2.2.2.2.2.L -.,.E h e 7 3 : * * * % # = ; ; 3 t k W >.1. .&.2.2.2.2.2.2.2.2.2.2.2.2.2.2.2.2.2.2.2.",
"2.2.2.2.2.2.2.2.2.2.2.2.2.2.2.2.2.2.2.2.2.P { O.) W C f r 9 3 < ; ; 3 9 t z W >.>.{ | 2.2.2.2.2.2.2.2.2.2.2.2.2.2.2.2.2.2.2.2.2.",
"2.2.2.2.2.2.2.2.2.2.2.2.2.2.2.2.2.2.2.2.2.2.2.P ' X.O.( ( W x g g z R W ;.=.X.] | *.2.2.2.2.2.2.2.2.2.2.2.2.2.2.2.2.2.2.2.2.2.2.",
"2.2.2.2.2.2.2.2.2.2.2.2.2.2.2.2.2.2.2.2.2.2.2.2.P J S F [ _ =.=.>.,.;.X.{ } ..%.2.2.2.2.2.2.2.2.2.2.2.2.2.2.2.2.2.2.2.2.2.2.2.2.",
"2.2.2.2.2.2.2.2.2.2.2.2.2.2.2.2.2.2.2.2.2.2.2.2.2.2.2.2.U P P ]  ...| #.&.2.2.2.2.2.2.2.2.2.2.2.2.2.2.2.2.2.2.2.2.2.2.2.2.2.2.2.",
"2.2.2.2.2.2.2.2.2.2.2.2.2.2.2.2.2.2.2.2.2.2.2.2.2.2.2.2.2.2.2.2.2.2.2.2.2.2.2.2.2.2.2.2.2.2.2.2.2.2.2.2.2.2.2.2.2.2.2.2.2.2.2.2.",
"2.2.2.2.2.2.2.2.2.2.2.2.2.2.2.2.2.2.2.2.2.2.2.2.2.2.2.2.2.2.2.2.2.2.2.2.2.2.2.2.2.2.2.2.2.2.2.2.2.2.2.2.2.2.2.2.2.2.2.2.2.2.2.2.",
"2.2.2.2.2.2.2.2.2.2.2.2.2.2.2.2.2.2.2.2.2.2.2.2.2.2.2.2.2.2.2.2.2.2.2.2.2.2.2.2.2.2.2.2.2.2.2.2.2.2.2.2.2.2.2.2.2.2.2.2.2.2.2.2."
};
