/* XPM */
static char *_521_0e5a594d942e7bb2d7ba3d37ce26e5d5fc07e6aad7c40d597af8172f484e4c78[] = {
/* columns rows colors chars-per-pixel */
"64 64 180 2 ",
"   c #000002",
".  c #03000C",
"X  c #050013",
"o  c #06001A",
"O  c #08001D",
"+  c #070020",
"@  c #090023",
"#  c #0C002B",
"$  c #0D0034",
"%  c #0F003A",
"&  c #120034",
"*  c #11003B",
"=  c #0F0044",
"-  c #120044",
";  c #190046",
":  c #14004B",
">  c #1B004C",
",  c #140053",
"<  c #1B0054",
"1  c #15005C",
"2  c #1B005B",
"3  c #210056",
"4  c #23005C",
"5  c #29005E",
"6  c #150061",
"7  c #1B0065",
"8  c #15006B",
"9  c #1C006B",
"0  c #160072",
"q  c #1C0075",
"w  c #17007B",
"e  c #1D007C",
"r  c #220064",
"t  c #2B0065",
"y  c #23006C",
"u  c #2B006C",
"i  c #31006A",
"p  c #230074",
"a  c #2C0074",
"s  c #22007C",
"d  c #2B007C",
"f  c #320075",
"g  c #380075",
"h  c #34007C",
"j  c #3A007B",
"k  c #170084",
"l  c #1B0084",
"z  c #19008C",
"x  c #170094",
"c  c #1B0094",
"v  c #1A009A",
"b  c #230084",
"n  c #2A0083",
"m  c #24008A",
"M  c #2C008C",
"N  c #340085",
"B  c #3B0081",
"V  c #32008C",
"C  c #3C008D",
"Z  c #230094",
"A  c #2C0094",
"S  c #24009B",
"D  c #2C009B",
"F  c #350093",
"G  c #3C0093",
"H  c #36009B",
"J  c #3C009B",
"K  c #1700A4",
"L  c #1900A5",
"P  c #1600AC",
"I  c #1B00AD",
"U  c #1500B1",
"Y  c #1900B3",
"T  c #1300BC",
"R  c #1C00BC",
"E  c #2200A5",
"W  c #2D00A5",
"Q  c #2400AD",
"!  c #2C00AA",
"~  c #3500A3",
"^  c #3C00A3",
"/  c #3400AB",
"(  c #3B00AB",
")  c #2600B1",
"_  c #2A00B3",
"`  c #2300BB",
"'  c #2A00BE",
"]  c #3300B3",
"[  c #3B00B3",
"{  c #3400BB",
"}  c #3D00BD",
"|  c #420084",
" . c #43008E",
".. c #460093",
"X. c #4A0096",
"o. c #43009B",
"O. c #4C009C",
"+. c #51009D",
"@. c #4500A1",
"#. c #4800A5",
"$. c #4300AB",
"%. c #4E00A8",
"&. c #5200A5",
"*. c #5C00A6",
"=. c #5300AB",
"-. c #5B00AB",
";. c #4200B2",
":. c #4B00B2",
">. c #4400BA",
",. c #4D00BC",
"<. c #5200B5",
"1. c #5900B1",
"2. c #5400BC",
"3. c #5E00B9",
"4. c #6100AA",
"5. c #6200B2",
"6. c #6800B3",
"7. c #6100BE",
"8. c #6B00BD",
"9. c #1500C3",
"0. c #1E00C4",
"q. c #1600CC",
"w. c #1B00CC",
"e. c #0400D2",
"r. c #0C00D3",
"t. c #0700D8",
"y. c #0D00D9",
"u. c #1400D3",
"i. c #1B00D5",
"p. c #1400D9",
"a. c #1B00D9",
"s. c #2400C3",
"d. c #2B00C5",
"f. c #2300CA",
"g. c #2B00C9",
"h. c #3400C5",
"j. c #3D00C4",
"k. c #3300CC",
"l. c #3B00C9",
"z. c #2300D5",
"x. c #2C00D4",
"c. c #2400D9",
"v. c #2B00D9",
"b. c #3300D4",
"n. c #3B00D4",
"m. c #3300D9",
"M. c #3B00DA",
"N. c #4200C1",
"B. c #4A00C3",
"V. c #4400CC",
"C. c #4B00CB",
"Z. c #5400C3",
"A. c #5C00C4",
"S. c #5400CB",
"D. c #5B00CB",
"F. c #4400D4",
"G. c #4C00D3",
"H. c #4400D9",
"J. c #4C00D9",
"K. c #5300D4",
"L. c #5B00D4",
"P. c #5400D9",
"I. c #5B00D8",
"U. c #6400C3",
"Y. c #6A00C6",
"T. c #6400CB",
"R. c #6C00CC",
"E. c #7200C4",
"W. c #7500C9",
"Q. c #6300D4",
"!. c #6C00D4",
"~. c #6400D9",
"^. c #6C00D9",
"/. c #7200D5",
"(. c #7C00D4",
"). c #7100D9",
"_. c #7A00D9",
"`. c #8100D6",
"'. c #8200D9",
"]. c None",
/* pixels */
"].].].].].].].].].].].].].].].].].].].].].].].].].].].].].].].].].].].].].].].].].].].].].].].].].].].].].].].].].].].].].].].].",
"].].].].].].].].].].].].].].].].].].].].].].].].].].].].].].].].].].].].].].].].].].].].].].].].].].].].].].].].].].].].].].].].",
"].].].].].].].].].].].].].].].].].].].].].].].].].].].].].].].].].].].].].].].].].].].].].].].].].].].].].].].].].].].].].].].].",
"].].].].].].].].].].].].].].].].].].].].].].].].].].].].].].].].].].].].].].].].].].].].].].].].].].].].].].].].].].].].].].].].",
"].].].].].].].].].].].].].].].].].].].].].].].].].].].].].].].].].].].].].].].].].].].].].].].].].].].].].].].].].].].].].].].].",
"].].].].].].].].].].].].].].].].].].].].].].].].].].].].].].].].].].].].].].].].].].].].].].].].].].].].].].].].].].].].].].].].",
"].].].].].].].].].].].].].].].].].].].].].].].].].].].].].].].].].].].].].].].].].].].].].].].].].].].].].].].].].].].].].].].].",
"].].].].].].].].].].].].].].].].].].].].].].].].].].].].].].].].F.K.L.Q.!.].].].].].].].].].].].].].].].].].].].].].].].].].].].",
"].].].].].].].].].].].].].].].].].].].].].].].].].].].].].].].].V.K.L.~.^.).(.W.].].].].].].].].].].].].].].].].].].].].].].].].",
"].].].].].].].].].].].].].].].].].].].].].].].].].].].].].].].].].G.K.Q.^.)._._._.].].].].].].].].].].].].].].].].].].].].].].].",
"].].].].].].].].].].].].].].].].].].].].].].].].].].].].].].].].].G.K.L.!./.(.(.'.'.(.].].].].].].].].].].].].].].].].].].].].].",
"].].].].].].].].].].].].].].].].].].].].].r.r.r.u.i.z.c.v.x.m.n.n.V.G.L.~.^.R.W.(.`.'.`.(.].].].].].].].].].].].].].].].].].].].",
"].].].].].].].].].].].].].].].].].].].].r.r.r.r.u.a.c.c.v.b.M.H.F.G.J.L.Q.^.Y.8.E.W.(.`.(.(.].].].].].].].].].].].].].].].].].].",
"].].].].].].].].].].].].].].].].].].r.r.r.].].u.u.i.i.c.c.m.M.M.H.J.P.K.I.~.U.5.4.6.E.(._._./.].].].].].].].].].].].].].].].].].",
"].].].].].].].].].].].].].].].].].u.u.u.q.q.u.i.a.c.c.c.v.v.b.n.H.J.J.P.I.~.Q.7.5.*.8./._.).).!.].].].].].].].].].].].].].].].].",
"].].].].].].].].].].].].].].].].].w.u.i.i.a.a.a.z.f.` s.g.b.k.h.[ j.G.K.L.I.Q.U.Y.-.*.Y.^.).^.~.L.].].].].].].].].].].].].].].].",
"].].].].].].].].].].].].].].].].z.f.z.c.z.c.z.z.c.` E S Z S ! ] / ~ } ,.B.Z.A.D.T.3.+.3.^.~.~.I.I.].].].].].].].].].].].].].].].",
"].].].].].].].].].].].].].].].].x.z.c.v.v.s.` ` ` L l e b p p A H ~ ^ ( :.$.#.<.Z.A.=.=.L.~.Q.L.L.G.].].].].].].].].].].].].].].",
"].].].].].].].].].].].].].].].b.b.x.m.m.x.' ) Q E Z e e l s s m n M V F F N C o.:.Z.2.o.Z.I.P.P.J.G.F.].].].].].].].].].].].].].",
"].].].].].].].].].].].].].].n.n.n.b.m.m.b.' _ Q E Z l s e b b b b b a y u u N J @.,.,.o.:.K.P.J.F.F.F.].].].].].].].].].].].].].",
"].].].].].].].].].].].].].F.F.H.n.n.M.m.h.W S Z z b e q 9 6 7 q p y y < 3 r d H H $.;.J ^ C.F.H.n.n.n.b.].].].].].].].].].].].].",
"].].].].].].].].].].].].J.J.F.n.H.H.n.{ W D Z b e 9 1 1 6 : , 2 2 2 2 2 r r r h V F H M F } j.H.n.b.b.b.].].].].].].].].].].].].",
"].].].].].].].].].].].C.K.G.G.G.F.} ~ A A A Z m p 9 , - - - : : , : - < 2 2 > r n d n a M ~ ] b.b.x.x.x.].].].].].].].].].].].].",
"].].].].].].].].].].].K.K.G.J.P.B.^ V A M n p 7 2 : - - - * % % - $ & - , < - < p p p p A D ! h.x.v.v.z.].].].].].].].].].].].].",
"].].].].].].].].].].K.L.P.P.J.C.;.J H M y r < < , - : - % $ $ # $ $ # # - - - > 9 p 9 7 b Z Z s.c.z.z.i.].].].].].].].].].].].].",
"].].].].].].].].].K.L.K.L.P.K.C.[ H V y 2 7 2 , - * % * % # @ + @ @ @ @ & * $ % 1 9 9 1 e Z c s.c.i.i.u.].].].].].].].].].].].].",
"].].].].].].].].].L.I.P.L.P.P.>.G N a r y y 9 < - $ # @ @ @ o X o o o O # # @ * 1 6 8 6 q z c s.a.a.i.u.u.r.].].].].].].].].].].",
"].].].].].].].].].K.P.I.K.P.B.J H V n p p y 2 , - $ # o o o . X X X X o O o @ = , , , 1 l c v 0.a.p.u.r.r.r.].].].].].].].].].].",
"].].].].].].].].G.P.P.P.P.B.^ ^ [ ~ n p p y - & # @ o X X X . . . . X X o X # % = = , 1 z v v U u.u.p.y.r.e.e.].].].].].].].].].",
"].].].].].].].].F.P.P.J.C.$.^ N.j.~ M b 7 : $ # @ o X X X . . . . . . X X X # # % = , 8 k z x P T q.y.y.e.e.e.].].].].].].].].].",
"].].].].].].].].F.J.J.C.[ H } j.] D M p < - : % # @ o X X .         . . X X O # % = = 8 w k K U U T y.r.e.e.e.].].].].].].].].].",
"].].].].].].].].n.H.V.j.~ [ j.{ ~ D m 9 , < : % # @ o X .           . X X o + $ = = , 6 0 k K P U 9.y.t.e.e.e.].].].].].].].].].",
"].].].].].].].].n.M.l.] / h.l.{ D A w 8 6 6 , % + O X X . .         . . . o # $ % = - , 0 z v K T y.y.t.].].e.].].].].].].].].].",
"].].].].].].].].m.b.h.! _ k.g.' Z l 7 1 6 6 = $ # + o o . .         . X X o @ $ = - - 6 w k z x 9.u.y.e.e.e.e.].].].].].].].].].",
"].].].].].].].].v.x.g._ ! g.x.s.Q v w 1 , , = $ $ # + X X . .   . . . X X o @ $ % - 1 9 q l 0 c Y q.u.t.e.e.e.].].].].].].].].].",
"].].].].].].].].c.c.g.` ` z.c.z.` I x 8 8 6 = = = # + X X . X . X . . X o @ # * - : : 9 l l q z I q.y.r.t.e.].].].].].].].].].].",
"].].].].].].].].i.c.0.z.i.i.c.i.0.Y v l w 8 6 , = $ @ + O o X X X X X o @ # * ; ; 2 7 p b s e S 0.a.u.y.r.e.].].].].].].].].].].",
"].].].].].].].].u.p.i.a.a.p.a.p.w.Y L z k w 8 , = % $ $ # O X X o o O O @ # * > 2 9 p m s q Z ` c.a.i.p.y.].].].].].].].].].].].",
"].].].].].].].].y.p.u.p.y.u.p.p.u.P K x k k 0 , : % % % & @ O o X O # # # & & ; 2 p b n m A _ x.c.c.a.p.r.].].].].].].].].].].].",
"].].].].].].].].r.y.y.r.r.r.r.p.u.P P v k k 0 , , = = % - # $ & O @ & & * ; > < y a n M H _ h.x.v.c.c.u.].].].].].].].].].].].].",
"].].].].].].].].e.y.y.e.r.e.r.p.i.9.R v w e l 8 7 - - - - & & * & # & ; > 3 r 2 4 a M H ~ / h.m.m.v.z.i.].].].].].].].].].].].].",
"].].].].].].].].].r.r.t.e.r.y.p.p.i.w.L w e l q q < < : ; ; : > 3 & & ; > 5 t 3 t d H ( / } n.M.m.x.z.].].].].].].].].].].].].].",
"].].].].].].].].].e.r.e.].].y.u.p.a.a.R l e s b b 9 r 7 3 < < 3 t 3 3 > > 3 t 5 u F ^ >.V.H.M.n.b.x.].].].].].].].].].].].].].].",
"].].].].].].].].].e.r.r.].].r.u.a.a.c.f.S b p m M n a a u 3 3 t u i i g a f h f h J >.B.G.H.H.n.b.b.].].].].].].].].].].].].].].",
"].].].].].].].].].].].].].].].u.a.i.z.v._ ! A F ~ F n C C f 5 5 u i f h C C o.J G @.B.J.J.J.H.H.n.k.g.x.g.].].].].].].].].].].].",
"].].].].].].].].].].].].].].].u.z.z.c.x.k.h.j./ ( $.H G J C f t 5 i j j ..#.#.o.#.2.S.P.P.P.F.H.n.n.n.b.x.x.].].].].].].].].].].",
"].].].].].].].].].].].].].].].].z.v.v.b.M.n.H.>.;.;.$.o.o. . . .j g j X.=.2.2.2.Z.S.S.S.S.S.P.G.H.H.H.n.b.].].].].].].].].].].].",
"].].].].].].].].].].].].].].].].z.v.m.b.n.H.G.C.:.,.2.2.<.O.X. .O.X.|  .&.2.A.A.D.D.Z.<.:.B.K.J.J.J.H.n.].].].].].].].].].].].].",
"].].].].].].].].].].].].].].].].].x.b.l.n.F.P.P.S.D.I.Q.Q.A.=.O.+.&.=.&.+.O.+.%.&.=.=.%.<.Z.S.K.P.G.H.].].].].].].].].].].].].].",
"].].].].].].].].].].].].].].].].].].n.n.].F.J.I.I.I.~.~.~.!.R.U.7.7.T.R.U.7.3.1.=.=.<.<.A.D.I.L.P.G.].].].].].].].].].].].].].].",
"].].].].].].].].].].].].].].].].].].].H.F.].G.K.I.~.~.^.!.~.!.!./.^.^./.).^.^.!.R.T.T.T.Q.~.I.K.].].].].].].].].].].].].].].].].",
"].].].].].].].].].].].].].].].].].].].].V.G.S.K.L.Q.Q.~.^.^.!.^.^./.^.).).).).^.^.^.^.^.~.Q.L.].].].].].].].].].].].].].].].].].",
"].].].].].].].].].].].].].].].].].].].].].].S.L.L.T.Q.T.Q.^./.!.!.!.!.!./.).).).).^.^.!.Q.].].].].].].].].].].].].].].].].].].].",
"].].].].].].].].].].].].].].].].].].].].].].].].].].].].].R.^.)././.!././././.).).!.Q.].].].].].].].].].].].].].].].].].].].].].",
"].].].].].].].].].].].].].].].].].].].].].].].].].].].].].].].].!.!.!.W./.!.!.].].].].].].].].].].].].].].].].].].].].].].].].].",
"].].].].].].].].].].].].].].].].].].].].].].].].].].].].].].].].].].].].].].].].].].].].].].].].].].].].].].].].].].].].].].].].",
"].].].].].].].].].].].].].].].].].].].].].].].].].].].].].].].].].].].].].].].].].].].].].].].].].].].].].].].].].].].].].].].].",
"].].].].].].].].].].].].].].].].].].].].].].].].].].].].].].].].].].].].].].].].].].].].].].].].].].].].].].].].].].].].].].].].",
"].].].].].].].].].].].].].].].].].].].].].].].].].].].].].].].].].].].].].].].].].].].].].].].].].].].].].].].].].].].].].].].].",
"].].].].].].].].].].].].].].].].].].].].].].].].].].].].].].].].].].].].].].].].].].].].].].].].].].].].].].].].].].].].].].].].",
"].].].].].].].].].].].].].].].].].].].].].].].].].].].].].].].].].].].].].].].].].].].].].].].].].].].].].].].].].].].].].].].].",
"].].].].].].].].].].].].].].].].].].].].].].].].].].].].].].].].].].].].].].].].].].].].].].].].].].].].].].].].].].].].].].].].",
"].].].].].].].].].].].].].].].].].].].].].].].].].].].].].].].].].].].].].].].].].].].].].].].].].].].].].].].].].].].].].].].].",
"].].].].].].].].].].].].].].].].].].].].].].].].].].].].].].].].].].].].].].].].].].].].].].].].].].].].].].].].].].].].].].].]."
};
