/* XPM */
static char *_29992c742eb47a5cd2e7c6b839cd3bd[] = {
/* columns rows colors chars-per-pixel */
"64 63 256 2 ",
"   c black",
".  c #0000A8",
"X  c #00A800",
"o  c #00A8A8",
"O  c #A80000",
"+  c #A800A8",
"@  c #A85400",
"#  c #4C4436",
"$  c gray33",
"%  c #5454FC",
"&  c #524A42",
"*  c #5E5246",
"=  c #736352",
"-  c #685D4C",
";  c #FCFC54",
":  c gray99",
">  c #ECECEC",
",  c gainsboro",
"<  c #D0D0D0",
"1  c #C0C0C0",
"2  c #B4B4B4",
"3  c gray66",
"4  c #989898",
"5  c gray55",
"6  c #7C7C7C",
"7  c gray44",
"8  c #646464",
"9  c gray33",
"0  c #484848",
"q  c gray22",
"w  c #2C2C2C",
"e  c #202020",
"r  c #FC0000",
"t  c #EC0000",
"y  c #E00000",
"u  c #D40000",
"i  c #C80000",
"p  c #BC0000",
"a  c #B00000",
"s  c #A40000",
"d  c #980000",
"f  c #880000",
"g  c #7C0000",
"h  c #700000",
"j  c #640000",
"k  c #580000",
"l  c #4C0000",
"z  c #400000",
"x  c #FCD8D8",
"c  c #FCB8B8",
"v  c #FC9C9C",
"b  c #FC7C7C",
"n  c #FC5C5C",
"m  c #FC4040",
"M  c #FC2020",
"N  c #FC0000",
"B  c #FCA85C",
"V  c #FC9840",
"C  c #FC8820",
"Z  c #FC7800",
"A  c #E46C00",
"S  c #CC6000",
"D  c #B45400",
"F  c #9C4C00",
"G  c #FCFCD8",
"H  c #FCFCB8",
"J  c #FCFC9C",
"K  c #FCFC7C",
"L  c #FCF85C",
"P  c #FCF440",
"I  c #FCF420",
"U  c #FCF400",
"Y  c #E4D800",
"T  c #CCC400",
"R  c #B4AC00",
"E  c #9C9C00",
"W  c #848400",
"Q  c #706C00",
"!  c #585400",
"~  c #404000",
"^  c #849C7B",
"/  c #738C6B",
"(  c #6B7B63",
")  c #637352",
"_  c #5A6B52",
"`  c #525A4A",
"'  c #4A5242",
"]  c #425239",
"[  c #394A39",
"{  c #313931",
"}  c #313929",
"|  c #293129",
" . c #293121",
".. c #212921",
"X. c #182118",
"o. c #181818",
"O. c #00FC00",
"+. c #00EC00",
"@. c #00E000",
"#. c #00D400",
"$. c #04C800",
"%. c #04BC00",
"&. c #04B000",
"*. c #04A400",
"=. c #049800",
"-. c #048800",
";. c #047C00",
":. c #047000",
">. c #046400",
",. c #045800",
"<. c #044C00",
"1. c #044000",
"2. c #C8BFB2",
"3. c #A89A85",
"4. c #9A8C77",
"5. c #7CFCF8",
"6. c #5CFCFC",
"7. c #40FCFC",
"8. c #20FCFC",
"9. c #00FCFC",
"0. c #00E4E4",
"q. c #00CCCC",
"w. c #00B4B4",
"e. c #009C9C",
"r. c #008484",
"t. c #007070",
"y. c #005858",
"u. c #004040",
"i. c #94846B",
"p. c #8C7B67",
"a. c #847B63",
"s. c #81735D",
"d. c #7B6B5A",
"f. c #007CCC",
"g. c #006CB4",
"h. c #005C9C",
"j. c #736B5A",
"k. c #736B52",
"l. c #9C9CFC",
"z. c #7C80FC",
"x. c #5C60FC",
"c. c #4040FC",
"v. c #2024FC",
"b. c #0004FC",
"n. c #0000FC",
"m. c #0000EC",
"M. c #0000E0",
"N. c #0000D4",
"B. c #0000C8",
"V. c #0000BC",
"C. c #0000B0",
"Z. c #0000A4",
"A. c #000098",
"S. c #000088",
"D. c #00007C",
"F. c #000070",
"G. c #000064",
"H. c #000058",
"J. c #00004C",
"K. c #000040",
"L. c #282828",
"P. c #FCE034",
"I. c #FCD424",
"U. c #FCCC18",
"Y. c #FCC008",
"T. c #FCB400",
"R. c #B420FC",
"E. c #A800FC",
"W. c #9800E4",
"Q. c #8000CC",
"!. c #7400B4",
"~. c #60009C",
"^. c #500084",
"/. c #440070",
"(. c #340058",
"). c #280040",
"_. c #FCD8FC",
"`. c #FCB8FC",
"'. c #FC9CFC",
"]. c #FC7CFC",
"[. c #FC5CFC",
"{. c #FC40FC",
"}. c #FC20FC",
"|. c #FC00FC",
" X c #E000E4",
".X c #C800CC",
"XX c #B400B4",
"oX c #9C009C",
"OX c #840084",
"+X c #6C0070",
"@X c #580058",
"#X c #400040",
"$X c #FCE8DC",
"%X c #FCE0D0",
"&X c #FCD8C4",
"*X c #FCD4BC",
"=X c #FCCCB0",
"-X c #FCC4A4",
";X c #FCBC9C",
":X c #FCB890",
">X c #FCB080",
",X c #FCA470",
"<X c #FC9C60",
"1X c #F0945C",
"2X c #E88C58",
"3X c #DC8854",
"4X c #D08050",
"5X c #C87C4C",
"6X c #BC7848",
"7X c #B47044",
"8X c #A86840",
"9X c #A0643C",
"0X c #9C6038",
"qX c #905C34",
"wX c #885830",
"eX c #80502C",
"rX c #744C28",
"tX c #6C4824",
"yX c #5C4020",
"uX c #543C1C",
"iX c #483818",
"pX c #403018",
"aX c #382C14",
"sX c #28200C",
"dX c #600064",
"fX c #006464",
"gX c #006060",
"hX c #00001C",
"jX c #00002C",
"kX c #302410",
"lX c #480048",
"zX c #500050",
"xX c #000034",
"cX c gray11",
"vX c #4C4C4C",
"bX c gray36",
"nX c gray25",
"mX c gray19",
"MX c #343434",
"NX c #2E2B22",
"BX c #B8E8E8",
"VX c #9CDCDC",
"CX c #74C8C8",
"ZX c #48C0C0",
"AX c #20B4B4",
"SX c #20B0B0",
"DX c #00A4A4",
"FX c #009898",
"GX c #008C8C",
"HX c #008484",
"JX c #007C7C",
"KX c #007878",
"LX c #007474",
"PX c #007070",
"IX c #006C6C",
"UX c #980088",
/* pixels */
"7 7 7 7 7 7 7 7 7 7 bX$ $ vXL.w w vX$ $ bX7 7 7 7 7 7 7 7 7 7 7 7 7 7 7 7 7 7 7 7 7 bX$ $ vXL.w w vX$ $ bX7 7 7 7 7 7 7 7 7 7 7 ",
"8 bX5 7 B B B B B B B B B B B B B B B B B B 1X1X1X1X3X3X3X3X3X3X3X3X3X4X4X5X5X5X6X6X6X6X6X6X6X6X7X7X7X7X7X7X7X7X7X7X7XqX8 7 vX8 ",
"8 bX7 7 B 6X6X6X6X6X6X6X6X6X7X7X7X7X7X7X7X7X7X7X7X7X7X7X7X7X7X7X7X7X7X7X7X7X8X8X8X8X8X8X8X8X8X8X8X8X8X9X9X9X9X9X9X9X9XqXq bXq 8 ",
"bX8 7 8 B 6XqXqXqXqXqXqXqXqXqXqXqXqXqXqXqXqXqXqXqXqXqXqXqXqXqXqXqXqXqXqXqXqXqXqXqXqXqXqXqXqXqXqXqXqXqXqXqXqXqXqXqXqX9XqXq bXvXbX",
"bX8 7 7 B 6XqX9X7X8X8X8X8X9X9X9X9X9X9X9X9X9X0X0X0X0X0X0X0X0X0X0X0X0X0X0X0X0XwXwXwXwXwXwXwXwXwXwXwXwXwXwXwXwXwXwXeXqX9XqXnXvXvXvX",
"bX7 8 7 B 6XqX6XrXrXrXrXrXrXrXeXeXeXeXeXeXeXeXeXeXeXeXeXwXwXwXwXwXwXwXwXwXwXwXwXwXwXwXwXwXwXwXwXeXeXeXeXeXeXrXrXwXqX9XqXnX0 vXvX",
"7 8 8 8 B 6XqX6XtXqXqXqXqXqXqX0X0X8X7X7X7X7X7X7X7X6X5X5X4X4X4X5X5X5X6X6X6X7X7X7X7X8X8X8X9X9X8X8X8X8X8X9X0X0XqXtXwXqX9XqXq $ nXvX",
"7 8 bXbXB 7XqX6XtX7Xe e NXNXe o.e NXNXe e e e o.o.e # 3.3 2.2.2.2.2.2.2.2.3.& } q q # i.k.e o.o.* 3.3 2.2.2.0XtXwXqX9XqXq vX0 vX",
"8 bX6 bXB 7XqX6XrX8Xe # # q q } } q q q } q q } # k.3 < , > , , , , < 2.k.# NXNX} q # 4.2.- } } & 4.3 3 3 3.0XtXwXqX9XqXq $ 0 0 ",
"8 8 bXbXB 7XqX6XrX7Xe q q q } q q q # # q q # - 3.< , > , > > > > 2.- & } } NXNXNX} q k.2.2.- q & a.4.4.3.3 0XrXwXqX9XqXw $ nX8 ",
"8 8 0 7 B 7XqX6XrX7Xe # # # q q q # # # q q k.2., , > > > > > > 2.k.} } NX} NXNXNXNX} - 3 , 2.* - i.3.3.2.2.0XrXwX0X9XqXmXbX$ $ ",
"$ bXbX7 1X7XqX6XrX7Xe } q # # q q # # & q - 2., , , > > > > > 2.k.q } } } } } } } NX} # a.< 2.* - i.4.3.3.3.0XrXwX0X9XqXw $ bXvX",
"e e e e 3X7XqX6XrX7Xo.} } } # & # # # # - 2., , > , , , > , 2.- q } NX} } } NXNXq # * - a.< 2.- - 3.3.3 3 3.0XrXwX9X9XqX  e e e ",
"cXcXcXcX3X8XqX6XrX7Xo.} } } } # q q } & 3.< , , > , , , < 4.& } } } } } NX} } & 4.2.< < < , < - & 4.3 3 3 3 0XrX0X9X9XqX  cXcXcX",
"L.L.L.L.3X8XqX6XeX7Xe q q } } } NX} q - 2., , , > , , < a.# } } } } NXNX} q k.2.< , , , > , < * q * a.4.3.3 0XrX0X9X9XwX  L.L.L.",
"w w w w 3X8XqX6XwX7Xe } } q q q } q * 3.< > , , > , , < k.} NX} } } NXNX# - 2., , , , , > , 2.& q q # k.4.4.0XrX0X9X9XwXcXw w w ",
"w vX$ $ 4X8XqX6XwX7Xe q } q q q } # i.< > > > > > , , , 3.q NX} } NXNX# 3 < > > > > > > > > < & q q q & i.3.0XrX0X9X9XwXq vXL.w ",
"w nXbX7 5X8XqX6XqX5Xe q } q } q } & 2., > > > , , , , , 2.# NX} } NX} # 3., > > > > > > > > < - q } q q * i.0XrX0X9X9XwXcX0 L.w ",
"w nX$ 8 5X8XqX6XqX5Xe q q q q q } - < , > , 2.4.< , > , < - } } } NXq # a.< > > > > > , < < 2.4.# } q q q - 0XeX0X9X9XwXe 0 L.w ",
"w nX8 8 6X8XqX6XwX5Xe } } } } q # i.< , , 3.- * 3 , > , , 3.# NX} } q q - i., > > , < 2.k.* - 3 - } } } } q 0XeX0X9X0XwXw 0 L.w ",
"w nXbX7 6X9XqX6XwX4Xe } } } } } # 4.< < 2.- q # i., > , , 2.- } } } } } # - 2., < 2.i.& q } & 3 k.q } } q q 0XeX8X8X0XwXq 0 L.w ",
"w nX8 7 6X9XqX6XwX4Xe } } q q q * 2.< 3.* q # q - < , , , , 2.* NXNX} } q # k.3.a.- # q } q - 4.a.q } } q } 9XeX8X8X0XwXw 0 L.w ",
"w nX7 6 6X9XqX6XeX4Xe q } q # # - 2.2.- & & q q - < , > > , , 4.& } } } } q & - & & q } } q # k.- q } } q q 8XeX8X8X0XwXmX0 L.w ",
"w nX6 6 7X9XqX6XeX5XNX# & # # & - 2.2.a.3.3.- # # 4., > > > > , 3 & NX} } q & & q q q # q } q & q } } } } q 8XeX8X8X0XwXq 0 L.w ",
"w nX5 7 7X9XqX6XeX5X} & - - # & - 4.2.4.3.2.2.3 - * 3 , > > > > < i.q } } q * & NXNX} q } q # # # } } } q q 7XeX7X8X0XwXmX0 L.w ",
"w nX6 8 8X9XqX6XeX5XNX& & & # & - a.3 3 2.2.2.2.3.# - 2.> > > > , 2.& } } q * q } } } - a.a.4.3 4.q } } } } 7XeX7X8X0XwXq 0 L.w ",
"w nX8 8 8X9XqX6XeX5Xe q q # & k.4.2.2.2.< < 2.3.4.# q k.2.> , < 4.- } } q # } NXNX} # i.3 2.2.2.3 - q q } } 7XwX7X8XqXeXq 0 L.w ",
"w nX8 8 8X9XqX6XwX6Xe q q # # & i.2.< < , < < 2.3.# } q i.< 2.i.# } } } } # NXNXNX} - i.3 2.2.2.2.a.& # } } 7XqX6X7XqXeXq 0 L.w ",
"w q q q 8X9XqX7XwX6Xe q q # # q i.2.< < < < < 2.3.q } } - 3 k.q } q } NX} # } NXNXNX# a.3.a.- - 4.- q q q } 7XqX6X7XqXeXcXq L.w ",
"w cXcXcX8X9XqX7XwX6Xe # # q q q i.2.2.2.< 3 4.3 3.# NXq q # q } q q } } } q } NXNXNX* 4.3.- * - 3.- q q q NX7XwX7X7XqXeX  cXcXw ",
"w L.L.L.qX9XqX7XwX6XNX# q q # # i.a.- k.3 k.k.a.k.# q & # q } } } } } } } } q NXNX} k.3.2.2.3 i.a.i.# q # q 7XwX7X7XqXeX  L.L.w ",
"w w w w qX9XqX7XwX6XNX& # & & - k.3 2.2.< 3 2.2.4.& # # q q } } } } NX} } # & & & } * a.i.3.2.4.i.4.# q q # 7XwX7X7XqXeXcXw w w ",
"7 7 7 7 qX9XqX7XwX6Xe q # & & & * 3.< < 2.2.2.3 k.& # } q } } } } } } q - 3 i.4.i.- - - - a.4.k.- * q } } # 7XqX6X7XqXeX$ 7 7 7 ",
"6 bX8 7 qX9XqX7XwX6Xe # & & & - & - 3 3 k.a.3 i.- k.q } } } } } NX} # k.2., 2.3.i.3.a.a.a.k.4.3.i.- q } } } 7XqX6X7XqXeXnXbXbXbX",
"7 bX7 bXqX9XqX7XwX6XNXq # & * & # - 3.3 a.3.2.4.a.i.# } } } } } NXq a.2., > , 3.3.4.i.a.a.- i.2.3 i.# } } } 7XqX6X7XqXeX0 $ 7 bX",
"8 bX7 7 qX9XqX7XwX6XNX# # # & # q - i.a.3.3.3 4.a.2.a.q } NXNX} q k.< > > > > < k.- - a.k.i.4.2.2.4.# q q } 7XqX6X7XqXeXnXbX$ $ ",
"7 7 5 7 eX9XqX7XwX7X} & # & & & & * k.a.a.a.3.a.k.< 2.& } NXNXq a.2.> > > > > < k.k.- * - a.i.3 3 i.# } } } 7XwX7X7XqXeXnXvXbXbX",
"6 6 7 8 eX0XqX7XwX7X} # q q & & & q * a.3 2.3.k.- < < k.# } q k.2., > > > > < 3 - i.i.# q q & k.k.& } NX} q 7XwX7X7XqXeXnX0 bX8 ",
"6 6 6 8 eX0XqX7XeX7Xe q q q # & * q q & - - & & i.< , < 3 - 4.2., > > > , < a.* * 4.4.k.& } } # - - # q } q 7XwX7X7XqXeXnX8 bX6 ",
"6 5 7 8 eX0XqX7XeX8Xe # q # * & & q # q # # q * a.4.2.2.2.< < < , , , < 2.k.& - - 4.3.3.k.q # * i.2.3.k.# # 7XqX6X7XqXeX0 bX8 5 ",
"6 6 6 8 eXqXqX8XrX8Xe * k.i.3.- } } - k.k.k.& & - - a.k.i.2.2.2.< < < 2.- # a.2.a.a.4.k.* # * a.2., < 3.4.4.7XqX6X7XqXeXnX8 7 6 ",
"6 7 7 7 eX0XqX7XeX7Xq i.2.3.4.& } & - & - * - - k.a.a.a.- k.a.2.2.3.2.3 - - 2.< 4.a.4.a.i.k.4.2., , , 3 3.3.7XqX6X6XqXeX0 7 8 7 ",
"7 7 7 8 eX0XqX7XeX8Xi.3.4.i.4.q q - i.# & - a.a.3.4.- 3.3.4.4.3 3.a.k.4.- k.2.< 4.a.a.4.4.3.3 , , , , 3 4.3.7X0X6X6XqXeX0 7 7 8 ",
"6 7 bX8 eXqXqX8XrX8Xk.a.- - a.q q * & } } # 4.3 3 - - 3 3 k.4.3 3 3.i.4.- 3 2.3.3 a.- a.4.3 3.< , < < 2.3.3 7X9X5X6XqXeX0 7 7 8 ",
"e e e e eXqXqX8XrX9X} # * k.a.q } & q } NX} - 3.3 * - 3 3 a.4.3.3 3.4.3.- a.- k.2.3 i.a.4.2.2.< 2.i.a.4.3.2.7X9X4X6XqXeX  e e e ",
"cXcXcXcXeXqXqX8XrX9Xe # # # q NX} q q } NX} & & - - a.3 3 3.2.3 3.i.3.3 3.* - k.< , 3 3 < , > < 4.4.4.i.4.< 7X8X3X6XqXeX  cXcXcX",
"L.L.L.L.eXqXqX9XrX0Xe # # q } } & - q & } } & - a.a.3.3 3 3 2.3.3.a.3.3 3 - - a., > , < > > > 2.4.i.i.a.3., 7X9X3X6XqXeX  L.L.L.",
"w w w w rXqXqX0XrX0XNX* - q q q - - # & } q - k.a.k.4.4.4.3 3.a.a.- a.3.2.k.& 4., > , > > > , 4.i.i.a.k.3.> 7XqX4X6XqXeXcXw w w ",
"w vX$ $ rXqXqX0XrX0Xe * - - & q - - # # } q - k.a.k.4.4.i.3.a.- - q - 4.2.i.& 4.< , 2.< , < < i.i.i.i.a.2.> 7XwX5X6XqXeXq vXL.w ",
"w nX6 7 rXqXqX9XrX0XNX# q - - * - * # q } q - - - * k.4.4.4.- - & } - 4.2.4.* * - i.4.i.i.i.i.i.4.4.4.3., > 7XwX5X6XqXeXw 0 L.w ",
"w nX5 8 rXqXqX9XrX0XNXq } q - - & # # q NX# - * - * - a.4.4.i.3.- } & 3.3 3 k.# - k.3.3.4.4.4.i.4.4.4.i., > 7XeX5X6XqXeXq 0 L.w ",
"w nX6 8 tXqXqX9XtX0X# - q q & * & q q } } - - & * - a.i.i.3 3 3 k.} # 3.3.3.k.& q q a.4.4.4.3.i.i.a.i.4., > 7XeX5X6XqXeXmX0 L.w ",
"w nX7 8 tXqXqX0XtX0X- - a.a.- # # q } } } - - # & 3 2.2.3 3.i.* q NXq i.4.i.k.# NXNX# a.i.4.3.4.i.k.a.3., > 7XeX5X6XqXeXmX0 L.w ",
"w nX7 7 tXqXqXqXtX0X& & k.k.k.k.* q NX} } * - & & 4.4.4.4.4.& # } NXq & * & & - q NXq - a.4.3.3.i.- a.3., > 6XeX3X6XqXeXw 0 L.w ",
"w nX8 7 tXqX0XqXtXwXwXwXwXwXwXwXwXwXwXqX0X0X0X9X8X8X8X8X7X7X7X7X7X7X7X7X7X7X6X6X5X6X6X6X6X6X5X6X5X6X6X6X6X5X6XeX3X6XqXeXmX0 L.w ",
"w nX8 8 yXqX0XqXrXtXtXtXrXrXrXrXrXeXeXeXeXeXeXeXeXeXeXwXwXwXwXwXwXwXwXwXeXeXeXeXeXeXeXeXeXeXeXeXwXeXeXeXeXeXeXeX3X6XqXeXw 0 L.w ",
"w nX8 6 yXqX0XqXqXqXqXqXqXqXqX0X0X9X9X9X9X9X8X7X6X6X6X6X6X6X6X6X5X5X5X5X4X4X4X3X4X4X4X4X3X3X3X3X3X2X2X2X1X1X1XB B 6XqXeXe 0 L.w ",
"w nXbX7 yXqX0X0X9X9X9X9X9X9X9X9X9X9X9X9X9X9X9X9X9X9X9X9X9X9X9X9X9X9X9X8X8X8X8X8X8X8X8X8X7X7X7X7X7X7X7X7X7X7X6X6X6X7XqXeXw 0 L.w ",
"w nX8 6 yXqXqXqXqXqXqXqXqXqXqXqXqXqXqXqXqXqXqXqXqXqXqXqXqXqXqXqXqXqXqXqXqXqXqXqXqXqXqXqXqXqXqXqXqXqXqXqXqXqXqXqXqXqXwXeXq 0 L.w ",
"w nX8 7 yXtXrXrXrXrXrXrXrXrXrXrXrXrXrXrXrXrXrXrXrXrXrXrXrXrXeXeXeXeXeXeXeXeXeXeXeXeXeXeXeXeXeXeXeXeXeXeXeXeXeXeXeXeXeXeXw 0 L.w ",
"w q q q mXe e e e cXcXcXcXcXcXcXcXcXcXcXcXe e e e e w mXmXmXL.e e mXmXmXw e e e e cXcXcXcXcXcXcXcXcXcXcXcXe e e e e w mXcXq L.w ",
"w cXcXcXcXcXcXcXcXcXcXcXcXcXcXcXcXcXcXcXcXcXcXcXcXcXcXcXcXcXcXL.L.cXcXcXcXcXcXcXcXcXcXcXcXcXcXcXcXcXcXcXcXcXcXcXcXcXcXcXcXcXcXw ",
"w L.L.L.L.L.L.L.L.L.L.L.L.L.L.L.L.L.L.L.L.L.L.L.L.L.L.L.L.L.L.L.L.L.L.L.L.L.L.L.L.L.L.L.L.L.L.L.L.L.L.L.L.L.L.L.L.L.L.L.L.L.L.w "
};
