/* XPM */
static char *dc97830ded7c49dea245ad4e8bdacae5[] = {
/* columns rows colors chars-per-pixel */
"64 64 256 2 ",
"   c black",
".  c #0000A8",
"X  c #00A800",
"o  c #00A8A8",
"O  c #A80000",
"+  c #A800A8",
"@  c #A85400",
"#  c #4C4436",
"$  c gray33",
"%  c #5454FC",
"&  c #524A42",
"*  c #5E5246",
"=  c #736352",
"-  c #685D4C",
";  c #FCFC54",
":  c gray99",
">  c #ECECEC",
",  c gainsboro",
"<  c #D0D0D0",
"1  c #C0C0C0",
"2  c #B4B4B4",
"3  c gray66",
"4  c #989898",
"5  c gray55",
"6  c #7C7C7C",
"7  c gray44",
"8  c #646464",
"9  c gray33",
"0  c #484848",
"q  c gray22",
"w  c #2C2C2C",
"e  c #202020",
"r  c #FC0000",
"t  c #EC0000",
"y  c #E00000",
"u  c #D40000",
"i  c #C80000",
"p  c #BC0000",
"a  c #B00000",
"s  c #A40000",
"d  c #980000",
"f  c #880000",
"g  c #7C0000",
"h  c #700000",
"j  c #640000",
"k  c #580000",
"l  c #4C0000",
"z  c #400000",
"x  c #FCD8D8",
"c  c #FCB8B8",
"v  c #FC9C9C",
"b  c #FC7C7C",
"n  c #FC5C5C",
"m  c #FC4040",
"M  c #FC2020",
"N  c #FC0000",
"B  c #FCA85C",
"V  c #FC9840",
"C  c #FC8820",
"Z  c #FC7800",
"A  c #E46C00",
"S  c #CC6000",
"D  c #B45400",
"F  c #9C4C00",
"G  c #FCFCD8",
"H  c #FCFCB8",
"J  c #FCFC9C",
"K  c #FCFC7C",
"L  c #FCF85C",
"P  c #FCF440",
"I  c #FCF420",
"U  c #FCF400",
"Y  c #E4D800",
"T  c #CCC400",
"R  c #B4AC00",
"E  c #9C9C00",
"W  c #848400",
"Q  c #706C00",
"!  c #585400",
"~  c #404000",
"^  c #849C7B",
"/  c #738C6B",
"(  c #6B7B63",
")  c #637352",
"_  c #5A6B52",
"`  c #525A4A",
"'  c #4A5242",
"]  c #425239",
"[  c #394A39",
"{  c #313931",
"}  c #313929",
"|  c #293129",
" . c #293121",
".. c #212921",
"X. c #182118",
"o. c #181818",
"O. c #00FC00",
"+. c #00EC00",
"@. c #00E000",
"#. c #00D400",
"$. c #04C800",
"%. c #04BC00",
"&. c #04B000",
"*. c #04A400",
"=. c #049800",
"-. c #048800",
";. c #047C00",
":. c #047000",
">. c #046400",
",. c #045800",
"<. c #044C00",
"1. c #044000",
"2. c #C8BFB2",
"3. c #A89A85",
"4. c #9A8C77",
"5. c #7CFCF8",
"6. c #5CFCFC",
"7. c #40FCFC",
"8. c #20FCFC",
"9. c #00FCFC",
"0. c #00E4E4",
"q. c #00CCCC",
"w. c #00B4B4",
"e. c #009C9C",
"r. c #008484",
"t. c #007070",
"y. c #005858",
"u. c #004040",
"i. c #94846B",
"p. c #8C7B67",
"a. c #847B63",
"s. c #81735D",
"d. c #7B6B5A",
"f. c #007CCC",
"g. c #006CB4",
"h. c #005C9C",
"j. c #736B5A",
"k. c #736B52",
"l. c #9C9CFC",
"z. c #7C80FC",
"x. c #5C60FC",
"c. c #4040FC",
"v. c #2024FC",
"b. c #0004FC",
"n. c #0000FC",
"m. c #0000EC",
"M. c #0000E0",
"N. c #0000D4",
"B. c #0000C8",
"V. c #0000BC",
"C. c #0000B0",
"Z. c #0000A4",
"A. c #000098",
"S. c #000088",
"D. c #00007C",
"F. c #000070",
"G. c #000064",
"H. c #000058",
"J. c #00004C",
"K. c #000040",
"L. c #282828",
"P. c #FCE034",
"I. c #FCD424",
"U. c #FCCC18",
"Y. c #FCC008",
"T. c #FCB400",
"R. c #B420FC",
"E. c #A800FC",
"W. c #9800E4",
"Q. c #8000CC",
"!. c #7400B4",
"~. c #60009C",
"^. c #500084",
"/. c #440070",
"(. c #340058",
"). c #280040",
"_. c #FCD8FC",
"`. c #FCB8FC",
"'. c #FC9CFC",
"]. c #FC7CFC",
"[. c #FC5CFC",
"{. c #FC40FC",
"}. c #FC20FC",
"|. c #FC00FC",
" X c #E000E4",
".X c #C800CC",
"XX c #B400B4",
"oX c #9C009C",
"OX c #840084",
"+X c #6C0070",
"@X c #580058",
"#X c #400040",
"$X c #FCE8DC",
"%X c #FCE0D0",
"&X c #FCD8C4",
"*X c #FCD4BC",
"=X c #FCCCB0",
"-X c #FCC4A4",
";X c #FCBC9C",
":X c #FCB890",
">X c #FCB080",
",X c #FCA470",
"<X c #FC9C60",
"1X c #F0945C",
"2X c #E88C58",
"3X c #DC8854",
"4X c #D08050",
"5X c #C87C4C",
"6X c #BC7848",
"7X c #B47044",
"8X c #A86840",
"9X c #A0643C",
"0X c #9C6038",
"qX c #905C34",
"wX c #885830",
"eX c #80502C",
"rX c #744C28",
"tX c #6C4824",
"yX c #5C4020",
"uX c #543C1C",
"iX c #483818",
"pX c #403018",
"aX c #382C14",
"sX c #28200C",
"dX c #600064",
"fX c #006464",
"gX c #006060",
"hX c #00001C",
"jX c #00002C",
"kX c #302410",
"lX c #480048",
"zX c #500050",
"xX c #000034",
"cX c gray11",
"vX c #4C4C4C",
"bX c gray36",
"nX c gray25",
"mX c gray19",
"MX c #343434",
"NX c #2E2B22",
"BX c #B8E8E8",
"VX c #9CDCDC",
"CX c #74C8C8",
"ZX c #48C0C0",
"AX c #20B4B4",
"SX c #20B0B0",
"DX c #00A4A4",
"FX c #009898",
"GX c #008C8C",
"HX c #008484",
"JX c #007C7C",
"KX c #007878",
"LX c #007474",
"PX c #007070",
"IX c #006C6C",
"UX c #980088",
/* pixels */
"wXrXeXeXwXrXeXeXwXeX9XwXwX0X8XeX0XwXeXeXeXeXqXeXrXeXwXeXeXeXeXrXeXrXrXwXeX0XeXwXeXeXwXqXeXeXeXtXeXrXeXrXeXrXeXwX0XeXqXwXeXeX0XaX",
"wXuXuXyXuXiXuXuXuXuXyXiXiXyXrXyXtXyXuXuXiXuXyXuXiXiXuXuXuXuXyXuXtXuXiXiXiXiXuXuXuXiXuXyXiXuXyXuXtXuXyXiXuXiXuXuXyXiXuXuXuXyXyXiX",
"eXyXiXpXpXiXpXaXpXpXiXpXpXaXpXaXpXpXiXpXaXaXpXpXpXpXpXaXpXaXpXaXpXpXiXaXaXaXaXpXpXaXpXpXpXaXpXaXpXpXiXaXpXaXpXpXpXpXaXpXaXpXyXiX",
"eXuXpXg g g f d d d d d d d d d d f h h g f d d d f g g g g f f f d f g g g g g h g h h g h h h g d d d f g h k k j h g g tXuXaX",
"wXuXpXd d d s a p p p O s s s s O O d d d s O O O s d d d d d d s O O s s s s O s d d f f g g g f s O a a d d f g g f d s eXyXpX",
"eXuXaXd d d s O a p h h h h h h h h h h h h h h h h h h h h h h h h h h h h h h h h h h h h h h h h h h h h d s d f d s a eXuXaX",
"eXuXpXs s s O a a a f w w w w w w w w w w w w w w w w w w w w w w w w w w w w w w w w w w w w w w w w w w n O O O O O a a eXiXpX",
"rXiXiXs s a p p a s f w w w w w w w w w w w w w w w w w w w w w w w w w w w w w w w w w w w w w w w w w w n a a p p p a O qXyXpX",
"wXuXpXs s a p p a d f w w w w w w w w w w w w w w w w w w w w w w w w w w w w w w w w w w w w w w w w w w n a p i i p O d rXuXaX",
"wXyXpXO O a p p a d f w w w w w w w w w w w w w w w w w w w w w w w w w w w w w w w w w w w w w w w w w w n i i i p p a f eXyXpX",
"eXyXiXa a a a p a s f w w w w w w w w w w w w w w w w w w w w w w w w w w w w w w w w w w w w w w w w w w n i i i p a s f eXuXuX",
"uXuXiXa p a a O O d f w w w w w w w w w w w w w w w w w w w w w w w w w w w w w w w w w w w w w w w w w w n a p p a a s d qXyXuX",
"aXpXaXa p p a s d d f w w w w w w w w w w w w w w w w w w bX6 6 bX$ mXmXw w w w w w w w w w w w w w w w w n p p p p a O s uXpXpX",
"d d d O a a O d f d f w w w w w w w w w w w w w w w w bX6 1 $ 4 1 2 $ mXmXw w w w w w w w w w w w w w w w n p i i p a a a O d d ",
"f f d s s s d f f d f w w w w w w w w w w w w w w w w 6 1 1 1 1 1 1 $ mXmXmXmXw w w w w w w w w w w w w w n i i i p a a a a s d ",
"d f d s s d d d d s f w w w w w w w w w w w w w w w w bXw w 7 1 1 1 $ mXmXmXmXmXmXmXmXmXmXmXmXw w w w w w n p i p p p a a O s d ",
"d d d s s s d s O a f w w w w mX$ 7 7 $ w w w w w w w w w w 5 1 1 3 $ mXmXmXmXmXmXmXmX$ 7 7 $ mXw w w w w n a p p i i a s s d d ",
"s s s s s s s s a p f w w w mX$ 5 2 1 2 $ w w w w w w w w $ 4 1 4 4 $ mXmXmXmXmXmXmX$ 2 1 2 5 $ mXw w w w n s a p p a s d d d d ",
"s s s d d s O O a p f w w w $ 1 6 1 1 1 2 $ w w w w w w $ 4 1 6 2 3 4 $ mXmXmXmXmX$ 2 1 1 1 6 1 $ w w w w n d d s s O s d d d s ",
"s s s d s O a a p i f w w w 7 3 5 1 4 2 1 2 $ w w w w $ 3 1 1 5 1 4 3 bX$ mXmXmX$ 2 1 2 4 1 5 3 7 w w w w n f g f d O a s d s s ",
"s O O O p p p p p i f w w w 3 8 1 7 5 7 2 1 2 $ $ $ $ $ 1 1 1 5 3 3 5 5 $ $ $ $ 2 1 2 7 5 7 1 8 3 w w w w n f g f d s s O s d d ",
"O a a p i i i i i i f w w w 3 8 7 1 1 7 6 1 1 3 2 2 5 7 1 1 6 1 4 7 1 3 7 1 2 3 1 1 6 7 1 1 7 8 3 w w w w n s f f d d s a O d s ",
"a p p i i i i i i u f w w w 3 7 2 1 7 1 6 2 7 5 1 1 8 4 2 1 4 1 6 6 1 4 7 1 1 5 7 2 6 1 7 1 2 7 3 w w w w n a d f f d d O a a a ",
"p p i i i u u u y y f w w w 3 8 3 7 1 1 2 7 2 5 3 bX6 1 7 1 3 5 1 4 1 4 7 2 3 5 2 7 2 1 1 7 3 8 3 w w w w n a s f f d d s a a p ",
"i i i i u u y y y y f w w w 3 8 2 5 7 3 8 3 1 1 7 1 bX5 6 5 3 1 1 1 6 2 6 4 7 1 1 3 8 3 7 5 2 8 3 w w w w n O s d d s s O a p i ",
"i i i i i i y y y y f w w w 3 8 2 5 $ 1 5 7 5 7 1 1 7 2 4 7 1 1 3 4 1 1 7 1 1 7 5 7 5 1 $ 5 2 8 3 w w w w n s s s O s O a a p i ",
"i i p p p i i u u u f w w w 4 8 2 5 $ 1 5 $ 4 5 7 1 7 1 3 5 5 1 4 4 1 1 6 1 7 5 4 $ 5 1 $ 5 2 8 4 w w w w n s O a a a a p p p i ",
"i i p a a a p p i i f w w w 5 $ 5 5 $ 1 5 $ 1 5 $ 2 8 1 6 1 1 7 1 4 1 1 7 2 $ 5 1 $ 5 1 $ 5 5 $ 5 w w w w n a a p i p p p p p p ",
"p p p O s O a a a p f w w w $ $ bX5 $ 5 5 $ 1 5 $ 1 $ 1 5 1 1 6 1 5 5 5 5 1 $ 5 1 $ 5 5 $ 5 bX$ $ w w w w n p p i u i p p i p a ",
"a a p a s O O s d s f w w w 5 $ w 5 $ bX5 $ 5 5 $ 1 8 7 1 1 2 3 3 3 3 3 7 1 $ 5 5 $ 5 bX$ 5 w $ 5 w w w w n u u u y y i p p p p ",
"a a a a O s s d d d f w w w 5 $ w 5 $ w 5 $ bX5 $ 5 bX4 1 6 4 1 7 2 1 1 5 5 $ 5 bX$ 5 w $ 5 w $ 5 w w w w n u u u u y u p p p p ",
"a s d d s d f d d s f w w w 5 $ w 5 $ w 5 $ w 5 $ bX7 4 1 1 4 1 3 4 2 1 7 bX$ 5 w $ 5 w $ 5 w $ 5 w w w w n u y u u i i i p p p ",
"a d g g d d f d s s f w w w 5 $ w 5 $ w 5 $ w 5 $ w $ 6 2 1 4 1 1 4 4 2 6 w $ 5 w $ 5 w $ 5 w $ 5 w w w w n u u u u i i i p a a ",
"O s f h g d d s O O f w w w 5 $ w 5 $ w 5 $ w 5 $ w $ 1 5 1 4 1 1 2 8 1 7 w $ 5 w $ 5 w $ 5 w $ 5 w w w w n i p i i p a p a s d ",
"d d d f g f s s O O f w w w 5 $ w 5 $ w 5 $ w 5 $ w bX1 4 2 3 1 1 5 4 1 6 w $ 5 w $ 5 w $ 5 w $ 5 w w w w n p O a a O s s s d f ",
"f f d d f f d O O O f w w w 5 $ w 5 $ w 5 $ w 5 $ w $ 6 2 6 $ $ 8 3 2 2 8 w $ 5 w $ 5 w $ 5 w $ 5 w w w w n a s s s s s s d s d ",
"d d d s d g f s s s f w w w 5 $ w 5 $ w 5 $ w 5 8 w $ 6 4 8 w w 8 3 4 1 $ w 8 5 w $ 5 w $ 5 w $ 5 w w w w n O s d d d d d f d d ",
"s s s d d g h g d s f w w w 5 $ w 5 $ w 5 $ w 4 w w w 8 4 8 w $ w 8 4 8 w w w 4 w $ 5 w $ 5 w $ 5 w w w w n s s d d f f g f f d ",
"O s d d f f h h f s f w w w 5 $ w 5 $ w 5 $ w 4 w w w 8 4 8 $ 2 $ 8 4 8 w w w 4 w $ 5 w $ 5 w $ 5 w w w w n s s s d d f f d d s ",
"O O s f f f g h g d f w w w 5 $ w 5 $ w 5 8 w w w w w 8 5 8 2 1 2 8 5 $ w w w w w 8 5 w $ 5 w $ 5 w w w w n s s s O a O d s s d ",
"s s d f f f f g h f f w w w 5 8 w 5 $ w 4 w w w w w 8 5 5 $ 1 2 $ 8 5 5 $ w w w w w 4 w $ 5 w 8 5 w w w w n s O a a a a O s d f ",
"d f f f d d f f g g f w w w 4 w w 5 $ w 4 w w w w w 8 5 $ 1 2 $ w $ 8 5 5 $ w w w w 4 w $ 5 w w 4 w w w w n s a p p p p a s d d ",
"f f f f d d d d g h f w w w 4 w w 5 $ w w w w w w w 8 $ 1 2 $ w $ 2 1 8 8 $ w w w w w w $ 5 w w 4 w w w w n s a p i i p p a d d ",
"h g f f d d d d f g f w w w w w w 5 8 w w w w w w $ w $ 2 1 2 $ 2 1 2 1 2 $ w w w w w w 8 5 w w w w w w w n O p i u i p a O d d ",
"f f f d d f f f f f f w w w w w w 4 w w w w w w $ 2 $ w $ 2 1 2 1 2 $ 2 1 2 $ w w w w w w 4 w w w w w w w n p i i u i i p O s d ",
"d d f d d d f g f f f w w w w w w 4 w w w w w $ 2 1 2 $ w $ 2 1 2 $ w $ 2 1 2 $ w w w w w 4 w w w w w w w n u i i u u i p p p p ",
"s d f f d d f f f d f w w w w w w w w w w w w w $ 2 1 2 $ 2 1 2 1 2 $ w $ 2 $ w w w w w w w w w w w w w w n y u i i i i p p p i ",
"p s d f f d d d d s f w w w w w w w w w w w w w w $ 2 1 2 1 2 $ 2 1 2 $ w $ w w w w w w w w w w w w w w w n y y u i i p p a a p ",
"p O s d f d s d d s f w w w w w w w w w w w w w w w $ 2 1 2 $ w $ 2 1 2 $ w w w w w w w w w w w w w w w w n y y y i p p a a a a ",
"O O s f f f d s s s f w w w w w w w w w w w w w w w w $ 2 $ w $ 2 1 2 $ w w w w w w w w w w w w w w w w w n y y y u p p a a a a ",
"s O s d d d d s a a f w w w w w w w w w w w w w w w w w $ w $ 2 1 2 $ w w w w w w w w w w w w w w w w w w n i y y y i p a O O a ",
"wXrXuXa a a a a i i f w w w w w w w w w w w w w w w w w w $ 2 1 2 $ w w w w w w w w w w w w w w w w w w w n p i u y u p a eXrXeX",
"uXuXpXa p i p p i i f w w w w w w w w w w w w w w w w w w w $ 2 $ w w w w w w w w w w w w w w w w w w w w n a a p i u i a rXuXyX",
"uXyXiXp i i i i p i f w w w w w w w w w w w w w w w w w w w w $ w w w w w w w w w w w w w w w w w w w w w n s a a p u u p eXtXpX",
"eXuXpXp i i i u i i f w w w w w w w w w w w w w w w w w w w w w w w w w w w w w w w w w w w w w w w w w w n s O a p i i i tXuXaX",
"wXuXpXp p p i u i i f w w w w w w w w w w w w w w w w w w w w w w w w w w w w w w w w w w w w w w w w w w n d s O a a p i eXyXpX",
"eXuXaXa a a p i u i f w w w w w w w w w w w w w w w w w w w w w w w w w w w w w w w w w w w w w w w w w w n d d s O a a i eXuXaX",
"eXuXpXs s O O i u u f w w w w w w w w w w w w w w w w w w w w w w w w w w w w w w w w w w w w w w w w w w n d d s s O a i eXiXpX",
"rXiXiXf d s a i u y f b b b b b b b b b b b b b b b b b b b b b b b b b b b b b b b b b b b b b b b b b b b s s O O O p p qXyXpX",
"wXuXpXg f d a i u y y u p s d f d d s s O O s O a p i i a a p O d d d d d d f f f f d s a a O s d f f d s O O a p p a a a rXuXaX",
"wXyXpXf f d a p i u u u p s d f f d s s O a a O a p p p a s s s d f f d d f g g f f f d O a O s d f f d d O p p i i a s d eXyXpX",
"eXyXuXeXrXeXrXrXwXeX0XeXwXeXeXwXqXeXeXeXtXeXrXeXrXeXrXeXwX0XeXqXwXeXeX0XrX0X0XqXwXwXrXeXeXwXeX9XwXwX0X8XeX0XwXeXeXeXeXqXeXrXtXiX",
"rXuXuXyXuXtXuXiXiXiXiXuXuXuXiXuXyXiXuXyXuXtXuXyXiXuXiXuXuXyXiXuXuXuXyXyXuXtXtXyXyXuXiXuXuXuXuXyXiXiXyXrXyXtXyXuXuXiXuXyXuXiXiXiX",
"aXpXaXpXaXpXpXiXaXaXaXaXpXpXaXpXpXpXaXpXaXpXpXiXaXpXaXpXpXpXpXaXpXaXpXpXiXaXpXaXpXpXiXpXaXpXpXiXpXpXaXpXaXpXpXiXpXaXaXpXpXpXpXpX"
};
