/* XPM */
static char *_2471_0c0dbbb75bdcb6c2c86e97eb8c29918d81942d4dc981e54fd3e5e59e82ddaeda[] = {
/* columns rows colors chars-per-pixel */
"64 64 256 2 ",
"   c black",
".  c #0000A8",
"X  c #00A800",
"o  c #00A8A8",
"O  c #A80000",
"+  c #A800A8",
"@  c #A85400",
"#  c #4C4436",
"$  c gray33",
"%  c #5454FC",
"&  c #524A42",
"*  c #5E5246",
"=  c #736352",
"-  c #685D4C",
";  c #FCFC54",
":  c gray99",
">  c #ECECEC",
",  c gainsboro",
"<  c #D0D0D0",
"1  c #C0C0C0",
"2  c #B4B4B4",
"3  c gray66",
"4  c #989898",
"5  c gray55",
"6  c #7C7C7C",
"7  c gray44",
"8  c #646464",
"9  c gray33",
"0  c #484848",
"q  c gray22",
"w  c #2C2C2C",
"e  c #202020",
"r  c #FC0000",
"t  c #EC0000",
"y  c #E00000",
"u  c #D40000",
"i  c #C80000",
"p  c #BC0000",
"a  c #B00000",
"s  c #A40000",
"d  c #980000",
"f  c #880000",
"g  c #7C0000",
"h  c #700000",
"j  c #640000",
"k  c #580000",
"l  c #4C0000",
"z  c #400000",
"x  c #FCD8D8",
"c  c #FCB8B8",
"v  c #FC9C9C",
"b  c #FC7C7C",
"n  c #FC5C5C",
"m  c #FC4040",
"M  c #FC2020",
"N  c #FC0000",
"B  c #FCA85C",
"V  c #FC9840",
"C  c #FC8820",
"Z  c #FC7800",
"A  c #E46C00",
"S  c #CC6000",
"D  c #B45400",
"F  c #9C4C00",
"G  c #FCFCD8",
"H  c #FCFCB8",
"J  c #FCFC9C",
"K  c #FCFC7C",
"L  c #FCF85C",
"P  c #FCF440",
"I  c #FCF420",
"U  c #FCF400",
"Y  c #E4D800",
"T  c #CCC400",
"R  c #B4AC00",
"E  c #9C9C00",
"W  c #848400",
"Q  c #706C00",
"!  c #585400",
"~  c #404000",
"^  c #849C7B",
"/  c #738C6B",
"(  c #6B7B63",
")  c #637352",
"_  c #5A6B52",
"`  c #525A4A",
"'  c #4A5242",
"]  c #425239",
"[  c #394A39",
"{  c #313931",
"}  c #313929",
"|  c #293129",
" . c #293121",
".. c #212921",
"X. c #182118",
"o. c #181818",
"O. c #00FC00",
"+. c #00EC00",
"@. c #00E000",
"#. c #00D400",
"$. c #04C800",
"%. c #04BC00",
"&. c #04B000",
"*. c #04A400",
"=. c #049800",
"-. c #048800",
";. c #047C00",
":. c #047000",
">. c #046400",
",. c #045800",
"<. c #044C00",
"1. c #044000",
"2. c #C8BFB2",
"3. c #A89A85",
"4. c #9A8C77",
"5. c #7CFCF8",
"6. c #5CFCFC",
"7. c #40FCFC",
"8. c #20FCFC",
"9. c #00FCFC",
"0. c #00E4E4",
"q. c #00CCCC",
"w. c #00B4B4",
"e. c #009C9C",
"r. c #008484",
"t. c #007070",
"y. c #005858",
"u. c #004040",
"i. c #94846B",
"p. c #8C7B67",
"a. c #847B63",
"s. c #81735D",
"d. c #7B6B5A",
"f. c #007CCC",
"g. c #006CB4",
"h. c #005C9C",
"j. c #736B5A",
"k. c #736B52",
"l. c #9C9CFC",
"z. c #7C80FC",
"x. c #5C60FC",
"c. c #4040FC",
"v. c #2024FC",
"b. c #0004FC",
"n. c #0000FC",
"m. c #0000EC",
"M. c #0000E0",
"N. c #0000D4",
"B. c #0000C8",
"V. c #0000BC",
"C. c #0000B0",
"Z. c #0000A4",
"A. c #000098",
"S. c #000088",
"D. c #00007C",
"F. c #000070",
"G. c #000064",
"H. c #000058",
"J. c #00004C",
"K. c #000040",
"L. c #282828",
"P. c #FCE034",
"I. c #FCD424",
"U. c #FCCC18",
"Y. c #FCC008",
"T. c #FCB400",
"R. c #B420FC",
"E. c #A800FC",
"W. c #9800E4",
"Q. c #8000CC",
"!. c #7400B4",
"~. c #60009C",
"^. c #500084",
"/. c #440070",
"(. c #340058",
"). c #280040",
"_. c #FCD8FC",
"`. c #FCB8FC",
"'. c #FC9CFC",
"]. c #FC7CFC",
"[. c #FC5CFC",
"{. c #FC40FC",
"}. c #FC20FC",
"|. c #FC00FC",
" X c #E000E4",
".X c #C800CC",
"XX c #B400B4",
"oX c #9C009C",
"OX c #840084",
"+X c #6C0070",
"@X c #580058",
"#X c #400040",
"$X c #FCE8DC",
"%X c #FCE0D0",
"&X c #FCD8C4",
"*X c #FCD4BC",
"=X c #FCCCB0",
"-X c #FCC4A4",
";X c #FCBC9C",
":X c #FCB890",
">X c #FCB080",
",X c #FCA470",
"<X c #FC9C60",
"1X c #F0945C",
"2X c #E88C58",
"3X c #DC8854",
"4X c #D08050",
"5X c #C87C4C",
"6X c #BC7848",
"7X c #B47044",
"8X c #A86840",
"9X c #A0643C",
"0X c #9C6038",
"qX c #905C34",
"wX c #885830",
"eX c #80502C",
"rX c #744C28",
"tX c #6C4824",
"yX c #5C4020",
"uX c #543C1C",
"iX c #483818",
"pX c #403018",
"aX c #382C14",
"sX c #28200C",
"dX c #600064",
"fX c #006464",
"gX c #006060",
"hX c #00001C",
"jX c #00002C",
"kX c #302410",
"lX c #480048",
"zX c #500050",
"xX c #000034",
"cX c gray11",
"vX c #4C4C4C",
"bX c gray36",
"nX c gray25",
"mX c gray19",
"MX c #343434",
"NX c #2E2B22",
"BX c #B8E8E8",
"VX c #9CDCDC",
"CX c #74C8C8",
"ZX c #48C0C0",
"AX c #20B4B4",
"SX c #20B0B0",
"DX c #00A4A4",
"FX c #009898",
"GX c #008C8C",
"HX c #008484",
"JX c #007C7C",
"KX c #007878",
"LX c #007474",
"PX c #007070",
"IX c #006C6C",
"UX c #980088",
/* pixels */
"6 4 7 6 8 8 4 4 5 7 6 bX5 5 5 3 3 4 4 3 4 3 3 3 5 6 4 5 3 3 3 2 2 2 4 3 3 4 2 3 5 5 7 3 5 5 3 1 1 1 1 3 3 4 3 2 2 3 3 3 3 1 2 4 ",
"rXqXqXrXrXyXtXtXqXtXqXrXrXeXyXtXeX9X4 3 4 4 4 7 $ $ 5 6 7 7 7 4 7 6 6 4 4 5 6 4 5 5 6 6 0 nX7 5 4 5 6 5 5 5 8 7 6 7 6 6 7 6 7 7 ",
"qXeXeXyXqXrX9XeXqXrXqXqXqXqXtXuXtX9XqX3 3 5 6 uXuXyXeXeXqXtXtXeX9XtXuXeXeXtXqXrXyXyXyXtXtXpXpXyXyXyXyXyXyXyXtXrXuXyXtXtXrXrXtXrX",
"qXqX9XeXqX9X9XeXqXeXrXrX9XeXyXpXuXeXeX9X3 3 8 pXpXuXtXeXqXyXyX9XtXtXtX9XtXeXeXtXeXrXeXtXyXyXtXyXtXtXeXtXtXyXrXeXuXpXyXeXyXyXeXqX",
"qXqXqXqXqXeX9XqX9XrXrXeXeX9X9XtXyXtXeXeX6 5 7 uXpXpXrXeXeXtXqXqXrXrXrXtXyXeXqXrXeXeXrXeXeXqXrXyXqXrXtXtXqXyXtXeXuXpXuXeXeXtXtXtX",
"eXqX9XqXeXeXqXeXeXqXyXtXyXrXeXrXrXtXeX4 3 6 7 uXpXuXyXyXrXtXqXrXeXyXeXrXyXeXrXqXeXqXrXtXeXyXqXyXtXtXyXtXeXeXeXtXuXtXtXyXyXtXrXrX",
"yXtXeXqXeXrXqXrXeXyXeXeXtXtXtXtXyXyXyX3 2 6 8 yXpXpXuXuXtXrXuXrXtXyXtXqXtXeXyXyXeX9XeXeXqXrXrXeXtXyXtXtXyXeXeXrXyXtXyXtXyXyXrXtX",
"yXuXyXyXyXyXtXtXyXyXyXyXtXyXtXtXyXyXtX3 2 5 5 7 tXuXpXpXyXrXpXyXpXpXpXtXqXrXrXyXuXyXrXrXtXyXyXtXtXyXtXrXtXrXuXtXyXpXpXuXyXpXyXuX",
"$ $ bX7 6 7 8 8 7 7 8 bXbX8 6 7 bXnX7 3 1 5 5 3 7 8 yXyXyXtXyXyXuXuXpXuXuXuXyXyXuXuXuXtXyXuXuXpXuXpXuXuXuXpXaXpXpXpXuXuXuXuXpXpX",
"7 6 6 5 5 5 5 4 4 4 4 4 5 5 3 2 5 5 4 6 4 3 3 3 5 3 4 3 6 8 8 8 7 7 7 7 7 7 6 7 6 7 7 8 8 bXbXq q q q q q q q q q q q q 8 7 8 bX",
"8 8 8 8 7 6 6 7 bX8 7 7 6 6 5 7 8 7 5 bX6 5 8 5 4 4 4 5 6 3 4 6 3 4 6 6 5 5 5 6 4 4 6 8 8 8 6 q e e e e e e e e e e w $ 8 8 bXbX",
"eXrXeXrXyXuXyXyXyXyXyXuXyXpXpXuXuXuXuXyXyXtXyXyXtXeXrXeXtXqXqXqXrXrXrXrXyXyXyXyXyXtXtXtXyX8 7 q e                   w $ 8 8 yXuX",
"eXyXtX9XqXeXqXqXeXqX9XeXrXyXyXtXtXrXeX9XrXyXuXuXyXeXtXtXeXyXtXeXtXtXeXqXyXrXyXyXtXrXuXuXyXpX5 q e     4 3 2 2 3     w $ 7 7 uXpX",
"tXqXrXeX9X9XeXqXeXqXqXeXqXrXuXyXrXqXrXeX9XrXyXpXuXyXyXyX9XeXtXtXtXtXqX9XqXeXeXyXrXtXpXpXuXuX6 q e   4 1 < < < 1 3   w $ 5 3 eXuX",
"yXrXtXyXrXtXrXqX9XeXrXqXeXpXyXtXyXtXeXqX9XeXyXpXrXtXyXpXtXrXrXtXyXyXeXrXrXtXqXtXtXuXpXpXpXaXbXq e   < , , , , < 1   w $ 4 3 qXeX",
"uXuXyXyXuXpXtXeXqXrXyXtXeXtXyXyXyXuXyXrXeXqXyXyXuXyXtXtXeXyXyXtXtXyXeXeXqXeXtXeXyXpXpXpXpXpX6 q e   , > 2 > , 4 1   w $ 6 2 5 9X",
"tXuXuXpXyXyXuXyXyXyXtXeXyXtXyXyXuXuXuXyXtXyXpXuXpXyXyXpXyXtXeXtXyXuXyXrXeXeXyXuXpXpXpXpXpXpX7 q e     q 4 q $ < 3   w $ 5 2 3 9X",
"4 5 7 7 5 4 4 5 4 4 5 2 3 3 3 3 5 5 4 4 4 3 5 6 6 6 6 6 8 6 4 5 8 8 7 7 6 8 pXuXpXpXpXpXpXnX7 q e   , 2 8 2 , , 4   w $ 4 1 2 4 ",
"6 4 5 5 8 6 6 4 6 5 4 4 5 4 4 3 3 3 7 7 7 7 bXnXbXnXnX$ bXbX7 7 7 3 4 6 4 6 6 5 4 4 2 3 3 2 7 q e     4 < , $ 6 q   w $ 4 3 3 5 ",
"rXtXtXeXrXyXrXrXeXeXeXqXeXeX4 3 2 5 6 q q q q q q q q q q q q q 7 3 3 4 4 8 4 6 5 5 5 3 7 8 6 q e e e 6 3 1 4 e e e w $ 6 5 5 rX",
"yXtXtXyXuXpXpXuXpXyXrXyXyXeXqXqX4 2 6 q e e e e e e e e e e w $ bX4 1 4 5 8 5 4 4 4 5 6 3 4 6 q $ $ $ vXnXnXnXnXnXvX$ $ 5 eXyXyX",
"yXyXqX9XyXuXpXpXpXuXpXpXuXyXrXtXqX2 7 q e                   w $ bX4 5 yXuXyXuXuXpXuXtXyXeXqXtXqXeXyXuXyXrXtXtXyXtXyXtXpXuXyXtXrX",
"eXpXyXeXuXuXtXuXpXuXpXuXuXtXtXuXtX2 7 q e     , 1 2 4 5     w $ 5 1 3 7XyXyXyXpXyXuXyXuXyXrXqX9XqXtXuXyXuXyXtXrXuXyXuXuXuXuXpXyX",
"rXrXqXuXrXrXeXyXaXpXuXrXuXyXtXrX7X1 7 q e   1 2 2 2 2 4 5   w $ 7 3 rX9XqXyXtXtXtXuXpXyXyXyXeXtXtXtXpXpXrXyXpXuXyXyXyXuXuXpXpXpX",
"eXeXyXyXqXyXtXeX9XuXyXuXtXrXuXyXqX3 6 q e   1 1 , , , 2 5   w $ 7 3 yXuX5X7XqXeX9XtXpXpXuXyX9X9XtXtXyXpXuXuXuXyX9XyXuXyXuXyXyXrX",
"9X9XeX9X9XtXpXyXeXqXeXtXeX9XeXqX9X2 bXq e   2 > > 2 > , 5   w $ $ 5 uXeXeXqX7XeX9XeXyXuXpXuXtX3X9X9XyXyXyXyXuXyX9XeXeXtXyXyXpXpX",
"7XeXyXrXqXyXyX9XtXyXyXyXtXeXqXqXeX6 6 q e   2 $ q 4 q $ 5   w $ w 8 uXuX9X7XqX9X9XqXtXuXpXpXpXtX7X9XrXrXeXrXrXeXeXyXtXeXyXyXrXeX",
"9XqXtXtXqX9XeXtXyXrXrXtXeXyXeXrXrX5 5 q e   2 , > 8 2 , 2   w $ bX4 yXpXrX9XqXqX5XtXyXyXyXtXyXrX9X9X7XtXeXtXyX9XqXeXrX9XtXyXyXqX",
"rXtXtXeXeXyXtX9XyXeXtXtXyXeX9X9X7X1 7 q e     $ 2 2 4 $     w $ 5 1 tXpXrX9XtX7XqX7X7X7XtXtXtXtXrXqXtXtXrXtXyXtXrXeXrXeX9X5XuXrX",
"yXyXyXyXyXyXpXyXyXeXyXtXtXtXeXrX3 3 6 q e e e 6 4 4 6 $ e e w $ 5 1 bXpXuXyXyXqXqX9XqX9XqXuXuXuXtXeXyXtXyXyXrXeXyXyXyXpXtXtXpXyX",
"uXyXuXyXuXuXpXpXuXuXuXrXeXrXqX9X3 4 bXq $ $ $ vXnXnXnXnXnXvX$ $ 5 1 3 4 9XeXqX7X9XqXqX9X9XrXqXqXrX9XeXyXeXyXeX9XtXrXtXtXrXrXrXrX",
"4 4 5 4 5 5 5 8 7 8 8 5 6 6 3 4 4 4 bXbXbX7 6 5 6 7 7 6 7 6 bXbX7 3 2 1 2 3 3 2 3 2 1 1 1 2 1 2 1 1 2 5 1 3 4 1 1 1 1 1 1 1 1 2 ",
"5 4 4 5 5 7 $ 0 bX$ 0 $ 8 6 6 6 5 5 6 7 8 8 5 5 4 4 4 5 7 4 3 1 2 2 3 4 2 2 2 1 3 7 4 3 4 2 3 3 1 2 5 2 5 6 6 6 5 7 4 4 3 4 3 3 ",
"eXeX9X7XqXeXrXyXuXuXuXuXuXuXpXuXuXuXyXuXuXuXuXyXyXyXyXyXuXyXyXyXpX4 2 3 2 3 2 2 6 tXtXyXrXtXtXyXtXyXyXyXyXuXyXyXpXyXuXyXpXpXtXyX",
"qX9XqX9X9X9XqXqXrXyXtXyXpXyXyXyXyXyXyXyXyXyXuXuXuXyXyXuXyXyXyXrXuXyX4 2 4 3 < 4 yXyXyXtXeXqXeXqX9XqXqXqXtXtXtXeXtXtXtXeXeXeXtXuX",
"eXeXeX9XqXqXqX9X9XqXqXqXqXqXyXyXyXyXyXyXyXyXyXyXyXyXyXuXyXtXyXtXyXyX5 2 7 8 3 5XqXeXrXeXeXeXqXeXrXrX9XeXeXrXrXqXrXeXtX9XqX9XqXqX",
"eXrXeX9XeXqXeXqX9XqX9XqXqX9X9XtXuXyXyXyXyXyXyXyXyXyXuXuXuXyXyXrXrXuX5 < 2 3 5 qXqXrXqXqXtXrXeXtXeXeXrXeXeXtXyXrXtXqXrXqXeX9XqXqX",
"yXeXeXqX9X9XqX9X9X9X9X9XqX7X9XeXyXyXuXuXyXyXyXyXuXyXyXyXtXyXyXtXyXrX4 < 1 1 9XeXrXeXeXeXeXqXqXtXeXqXtXyXeXeXrXuXeXeXqX9XyX7X9X9X",
"uXtXeXyXrXqXeXqX7X9X7X9X9X9X5X5X9XqXrXyXyXuXyXuXpXuXyXeXeXyXyXyXuXrX5 < 1 2 qXrXyXrXtXyXqXeXeXqXeXeXqXqXeXqXyXyXyXqXqXqXyXyXrXeX",
"uXyXtXrXeXqXeXtX9XqX9X9XqX9X5X5X7X7X9X9XeXyXuXyXpXuXuXyXtXtXtXuXyXyX8 < 1 2 tXyXyXyXyXuXuXuXyXeXqXtX9XqXtXuXpXyXtXrXqXrXuXeXtXyX",
"uXtXtXyXyXqXeXrXrXqXrX9X9X9X7X7X7X9X7X9XqXtXuXuXuXtXtXtXtXyXyXtXyXyX7 < < 3 rXyXyXyXyXuXpXuXuXtXrXrXeXtXpXpXpXpXyXyXuXyXuXtXyXtX",
"yXyXyXtXtXtXeXeXtXeXyXyXeX9X7X9X9XqXqX9XrXtXrXpXtXtXtXyXyXyXyXyXuXrX6 2 < 1 5 tXeX9XeXyXyXyXpXyXtXeXrXuXuXpXpXpXuXyXuXpXpXuXuXyX",
"yXuXuXyXrXrXrXrXtXrXuXpXyXeX9X9X9X7X9X9XqXtXyXeXeXqXrXtXpXuXpXuXrXrX5 2 1 3 1 1 2 3 2 3 7 7 7 7 bXnXbXnXnX$ bXbX7 7 7 8 7 yXpXpX",
"5 5 4 2 1 2 2 3 3 3 3 5 3 4 4 4 5 5 5 4 4 5 6 5 3 3 3 3 5 6 5 5 5 7 5 6 6 4 3 4 2 3 3 5 6 q q q q q q q q q q q q q 7 7 6 6 7 7 ",
"7 7 6 5 4 2 1 3 3 1 4 2 3 1 q q q q q q q q q q q q q 3 3 3 4 5 5 6 8 6 8 6 5 6 5 3 3 2 6 q e e e e e e e e e e w $ bX8 $ $ 7 7 ",
"pXpXpXpXyXyXyXyXrXqX5 7 6 4 q e e e e e e e e e e w $ 6 6 uXyXuXtXyXyXyXuXyXuXuXuXuXuX6 7 q e                   w $ bXrXuXuXpXpX",
"yXuXuXyXyXtXyXyXeXyXrXyXuX5 q e                   w $ 7 eXtXrXyXeX7X9XyXtXyXyXuXuXpXpXpX7 q e     3 2 2 3 4     w $ 5 yXpXyXpXuX",
"tXyXtXrXeX9XqXqX9XrXeXtXuX5 q e                   w $ 7 eXrXtXyXeXeXeXeXeXrXuXpXpXpXpXpX7 q e   3 1 < < < 1 4   w $ 7 bXuXpXuXpX",
"uXuXeXeXeX9X9X9X9XrXqXtXpX4 q e     1 1 2 3 4     w $ 7 eXeXyXyX9XqXqX5X7XtXuXpXpXpXpXpX6 q e   1 < , , , , <   w $ 7 6 uXuXuXpX",
"uXuXyXrXqXeX9X7XqXeXqXrXuX5 q e   1 , , < 1 4 5   w $ 6 rXqXqXeXeXeXqXqX9XyXpXpXpXpXpXpXbXq e   1 4 , > 2 > ,   w $ 3 4 7 pXpXpX",
"yXyXuXtXrXeXqXqXqXqXeXyXpX8 q e   < , , , < 1 4   w $ bXyXyXqXqXrXqXeXrX9XtXpXuXpXpXpXpX6 q e   3 < $ q 4 q     w $ 4 4 7 tXuXyX",
"uXyXyXpXyXeXtXeXeXeXtXuXuX7 q e   , 2 > , 6 4 2   w $ 6 yXrXrXrXrXrXeXeX9XtXuXuXpXpXpXpX5 q e   4 , , 2 8 2 ,   w $ 3 3 7 yXyXuX",
"pXpXpXyXpXyXpXyXrXtXyXpXpX6 q e     4 q $ 1 2 5   w $ 5 pXyXtXeXyXyXrXeXqXqXeXyXpXuXpXpX7 q e   q 6 $ , < 4     w $ 5 2 5 rXrXpX",
"6 6 5 4 5 9XeXtXqXeXrXtX6 5 q e   , 8 2 , , ,     w $ 7 5 6 4 5 5 5 5 3 3 4 5 yXyXyXrXyX6 q e e e e 4 1 3 6 e e w $ 5 3 2 1 3 5 ",
"2 3 3 5 3 2 2 3 6 4 3 2 3 2 q e e e < , 4 6 e e e w $ 6 2 3 3 4 2 1 2 1 1 1 4 3 4 4 2 4 bXq $ $ $ vXnXnXnXnXnXvX$ $ 5 4 4 3 4 2 ",
"$ 8 6 7 7 7 7 5 7 8 6 5 5 3 q $ $ $ vXnXnXnXnXnXvX$ $ 2 2 2 1 1 1 2 1 1 2 1 2 2 1 3 3 2 bXbXbX7 6 5 6 7 7 6 7 6 bXbX7 8 7 6 6 8 ",
"eXtXeXtXtXyXyXyXyXyX6 5 6 bX7 6 5 6 7 7 6 7 6 5 5 5 5 6 5 5 2 2 2 2 3 3 3 3 5 5 5 9XeXtXeXqXqXqXeXeXrXtXeXqXrXtXtXtXyXuXpXyXtXyX",
"7XqXrXtXeXtXyXyXuXrXeX9XeX9XyXtXtXtXtXtXtXtXtXtXrXeXyXpXtX6 2 4 eXtXyXtXrXtXtXtXtXrXeXtXrXrXqXqXtXqXtXyXtXqXtXtXrXrXtXrXuXyXeXeX",
"rX9X9XeX9XeXeXeXqXrXeX9XeXtXeXeXqXrXqXqXqXeXrXyX9XtXuXyXyX8 2 < 4 qXrXeXqXqXeXqXqXqXrXrXqXtXqXqXyXeXtXrXrXrXtXtXtXtXeXeXtXtXeXeX",
"eXqX9XqX9XqXqXqXeXtXeXqXtX9XrXyXeXeXeXqX9XeXrXrXyXuXuXyXtX$ 5 < 5 rXrXrXeXeXqX9X9XqXrXrXeXeXqXqXtXeXqXrXtXqXtXqXeXtXuXyXrXqXeXqX",
"eXeXrXrXeX9XqXeXtXeXtXqXtXeXqXyXtXeXtXtXrXrXeXeXtXyXuXrX6 5 2 1 2 rXrXqXqXqXqXeXqXeXtXrXeXtXrXqXeXrXqXqXeXeXyX9XrXeXtXyXuXyXrXqX",
"eXqXqXqXtXtXtXeXyXtXtXeXtXyX9XrXrXtXeXrXeXyXuXyXqX6 6 7 5 3 2 2 3 qXeXqX9XqXrXtXyXyXyXyXyXyXyXyXyXeXtXtXtXtXyXtXrXyXyXtXtXuXrXqX",
"5 4 3 3 2 3 3 4 3 4 5 5 5 5 3 5 3 4 5 2 1 4 3 4 3 4 6 7 7 5 6 7 2 5 qX9XeXqXqX9X5 3 3 3 3 3 3 6 6 6 6 tXuXuXyXrXeXrXyXeXrXtXeX9X",
"3 2 1 2 3 1 5 6 5 2 2 3 3 5 1 3 2 1 1 2 1 1 3 3 3 3 1 3 3 2 4 5 4 3 3 2 3 1 1 1 2 2 2 1 1 1 1 2 1 1 < 1 2 1 1 2 3 2 4 2 1 2 4 6 "
};
