/* XPM */
static char *_1909_7591d84c40d8e0a15ea9abfe3ee6bc0f50dd878f35181517191fab1731cb9c72[] = {
/* columns rows colors chars-per-pixel */
"64 64 256 2 ",
"   c black",
".  c #0000A8",
"X  c #00A800",
"o  c #00A8A8",
"O  c #A80000",
"+  c #A800A8",
"@  c #A85400",
"#  c #4C4436",
"$  c gray33",
"%  c #5454FC",
"&  c #524A42",
"*  c #5E5246",
"=  c #736352",
"-  c #685D4C",
";  c #FCFC54",
":  c gray99",
">  c #ECECEC",
",  c gainsboro",
"<  c #D0D0D0",
"1  c #C0C0C0",
"2  c #B4B4B4",
"3  c gray66",
"4  c #989898",
"5  c gray55",
"6  c #7C7C7C",
"7  c gray44",
"8  c #646464",
"9  c gray33",
"0  c #484848",
"q  c gray22",
"w  c #2C2C2C",
"e  c #202020",
"r  c #FC0000",
"t  c #EC0000",
"y  c #E00000",
"u  c #D40000",
"i  c #C80000",
"p  c #BC0000",
"a  c #B00000",
"s  c #A40000",
"d  c #980000",
"f  c #880000",
"g  c #7C0000",
"h  c #700000",
"j  c #640000",
"k  c #580000",
"l  c #4C0000",
"z  c #400000",
"x  c #FCD8D8",
"c  c #FCB8B8",
"v  c #FC9C9C",
"b  c #FC7C7C",
"n  c #FC5C5C",
"m  c #FC4040",
"M  c #FC2020",
"N  c #FC0000",
"B  c #FCA85C",
"V  c #FC9840",
"C  c #FC8820",
"Z  c #FC7800",
"A  c #E46C00",
"S  c #CC6000",
"D  c #B45400",
"F  c #9C4C00",
"G  c #FCFCD8",
"H  c #FCFCB8",
"J  c #FCFC9C",
"K  c #FCFC7C",
"L  c #FCF85C",
"P  c #FCF440",
"I  c #FCF420",
"U  c #FCF400",
"Y  c #E4D800",
"T  c #CCC400",
"R  c #B4AC00",
"E  c #9C9C00",
"W  c #848400",
"Q  c #706C00",
"!  c #585400",
"~  c #404000",
"^  c #849C7B",
"/  c #738C6B",
"(  c #6B7B63",
")  c #637352",
"_  c #5A6B52",
"`  c #525A4A",
"'  c #4A5242",
"]  c #425239",
"[  c #394A39",
"{  c #313931",
"}  c #313929",
"|  c #293129",
" . c #293121",
".. c #212921",
"X. c #182118",
"o. c #181818",
"O. c #00FC00",
"+. c #00EC00",
"@. c #00E000",
"#. c #00D400",
"$. c #04C800",
"%. c #04BC00",
"&. c #04B000",
"*. c #04A400",
"=. c #049800",
"-. c #048800",
";. c #047C00",
":. c #047000",
">. c #046400",
",. c #045800",
"<. c #044C00",
"1. c #044000",
"2. c #C8BFB2",
"3. c #A89A85",
"4. c #9A8C77",
"5. c #7CFCF8",
"6. c #5CFCFC",
"7. c #40FCFC",
"8. c #20FCFC",
"9. c #00FCFC",
"0. c #00E4E4",
"q. c #00CCCC",
"w. c #00B4B4",
"e. c #009C9C",
"r. c #008484",
"t. c #007070",
"y. c #005858",
"u. c #004040",
"i. c #94846B",
"p. c #8C7B67",
"a. c #847B63",
"s. c #81735D",
"d. c #7B6B5A",
"f. c #007CCC",
"g. c #006CB4",
"h. c #005C9C",
"j. c #736B5A",
"k. c #736B52",
"l. c #9C9CFC",
"z. c #7C80FC",
"x. c #5C60FC",
"c. c #4040FC",
"v. c #2024FC",
"b. c #0004FC",
"n. c #0000FC",
"m. c #0000EC",
"M. c #0000E0",
"N. c #0000D4",
"B. c #0000C8",
"V. c #0000BC",
"C. c #0000B0",
"Z. c #0000A4",
"A. c #000098",
"S. c #000088",
"D. c #00007C",
"F. c #000070",
"G. c #000064",
"H. c #000058",
"J. c #00004C",
"K. c #000040",
"L. c #282828",
"P. c #FCE034",
"I. c #FCD424",
"U. c #FCCC18",
"Y. c #FCC008",
"T. c #FCB400",
"R. c #B420FC",
"E. c #A800FC",
"W. c #9800E4",
"Q. c #8000CC",
"!. c #7400B4",
"~. c #60009C",
"^. c #500084",
"/. c #440070",
"(. c #340058",
"). c #280040",
"_. c #FCD8FC",
"`. c #FCB8FC",
"'. c #FC9CFC",
"]. c #FC7CFC",
"[. c #FC5CFC",
"{. c #FC40FC",
"}. c #FC20FC",
"|. c #FC00FC",
" X c #E000E4",
".X c #C800CC",
"XX c #B400B4",
"oX c #9C009C",
"OX c #840084",
"+X c #6C0070",
"@X c #580058",
"#X c #400040",
"$X c #FCE8DC",
"%X c #FCE0D0",
"&X c #FCD8C4",
"*X c #FCD4BC",
"=X c #FCCCB0",
"-X c #FCC4A4",
";X c #FCBC9C",
":X c #FCB890",
">X c #FCB080",
",X c #FCA470",
"<X c #FC9C60",
"1X c #F0945C",
"2X c #E88C58",
"3X c #DC8854",
"4X c #D08050",
"5X c #C87C4C",
"6X c #BC7848",
"7X c #B47044",
"8X c #A86840",
"9X c #A0643C",
"0X c #9C6038",
"qX c #905C34",
"wX c #885830",
"eX c #80502C",
"rX c #744C28",
"tX c #6C4824",
"yX c #5C4020",
"uX c #543C1C",
"iX c #483818",
"pX c #403018",
"aX c #382C14",
"sX c #28200C",
"dX c #600064",
"fX c #006464",
"gX c #006060",
"hX c #00001C",
"jX c #00002C",
"kX c #302410",
"lX c #480048",
"zX c #500050",
"xX c #000034",
"cX c gray11",
"vX c #4C4C4C",
"bX c gray36",
"nX c gray25",
"mX c gray19",
"MX c #343434",
"NX c #2E2B22",
"BX c #B8E8E8",
"VX c #9CDCDC",
"CX c #74C8C8",
"ZX c #48C0C0",
"AX c #20B4B4",
"SX c #20B0B0",
"DX c #00A4A4",
"FX c #009898",
"GX c #008C8C",
"HX c #008484",
"JX c #007C7C",
"KX c #007878",
"LX c #007474",
"PX c #007070",
"IX c #006C6C",
"UX c #980088",
/* pixels */
"w w w w w w w w w w w w w w w w w w w w w w w w w w w w w w w w w w w w w w w w w w w w w w w w w w w w w w w w w w w w w w w w ",
", , , , , , , , , , , , , 5 L.w w , , , , , , , , , , , , , , , , , , , , , , , , , , , , 5 L.w w , , , , , , , , , , , , , , , ",
"4 2 4 3 5 3 4 3 2 4 3 5 6 7 e w w , 3 4 6 6 5 4 3 4 3 3 3 4 4 4 3 3 2 3 4 3 3 5 5 3 < 3 3 7 e w w , 2 4 2 3 3 3 3 3 2 3 1 3 5 4 ",
"4 3 2 2 3 3 2 2 4 5 3 4 5 7 e w w , 5 4 4 3 6 3 3 4 2 3 3 4 3 3 3 2 2 3 3 3 4 3 2 < 2 3 3 7 e w w , 3 4 1 3 3 3 1 3 4 3 5 2 5 2 ",
"3 2 4 5 3 3 3 4 4 3 4 4 2 7 e w w , 4 3 3 2 3 3 4 5 3 < 2 2 3 3 3 3 3 3 3 4 3 5 3 3 3 3 3 7 e w w , 3 3 1 1 2 3 1 3 2 3 5 4 2 4 ",
"3 5 5 3 3 5 3 3 3 4 4 3 3 7 e w w , 2 2 3 2 3 3 3 2 3 4 3 2 1 3 3 1 3 3 3 2 5 5 2 2 2 3 3 7 e w w , 1 3 2 4 3 3 3 4 3 5 3 4 < 2 ",
"3 3 4 3 3 3 2 4 4 3 3 3 3 7 e w w , 3 2 3 3 4 5 4 3 1 2 2 3 4 3 4 4 5 4 2 3 3 5 2 3 3 3 1 7 e w w , 3 3 4 4 5 3 3 3 3 2 3 5 4 5 ",
"3 3 4 2 2 3 4 4 8 6 7 7 7 0 e w w 4 4 7 7 7 7 8 6 6 6 6 6 7 8 bXbX7 7 6 8 6 bX7 6 bXbX6 7 0 o.w w 4 7 6 5 4 2 2 3 2 5 5 2 5 2 4 ",
"7 7 7 7 7 7 8 $ 0 q MXMXMXMXe w w nXMXMXMXMXMXMXMXMXMXMXMXMXMXMXMXMXMXMXMXMXMXMXMXMXMXMXMXMXo.w w nXq nX0 $ 8 7 7 6 7 7 7 7 7 7 ",
"cXcXcXcXcXcXo.o.                                                                                                e e cXcXcXcXcXcX",
"L.L.L.L.L.L.cXo.  cXcXcXcXcXcXcXcXcXcXcXcXcXcXcXcXcXcXcXcXcXcXcXcXcXcXcXcXcXcXcXcXcXcXcXcXcXcXcXcXcXcXcXcXcXcX  w w L.L.L.L.L.L.",
"w , , , , , 4 8   cXL.L.L.L.L.Q E E W L.W E E L.L.L.Q R R E L.L.L.! Q L.L.L.E E E E Q L.Q Q Q Q L.L.L.L.W Q cX  : : , , , 5 L.w ",
"w , 4 3 3 4 8 vX  cXQ Q Q L.W E E E W L.Q E E E L.Q R R R E Q L.R R R R L.L.E E E E Q L.Q Q Q Q Q L.L.T T T cX  : > 1 < 3 7 e w ",
"w , 5 4 3 3 8 0   cXQ Q Q L.W E E E W L.Q E E E L.! E R R R ! ! R R T R W L.Q E E E Q L.Q Q Q Q Q L.! T T T cX  : > 1 2 5 7 e w ",
"w , 4 3 3 4 8 $   cXQ Q ! L.W E E E W L.Q E E E ! L.E R R E L.Q R T R R R ! L.E E E Q L.Q Q Q Q Q ! Q T T T cX  : , 1 3 3 7 e w ",
"w , 4 4 5 3 7 vX  cXQ Q L.L.L.L.L.L.L.L.L.L.L.L.L.L.L.L.L.L.L.L.L.L.L.L.L.L.L.L.L.L.L.L.L.L.L.L.L.L.Q T T T cX  : 1 5 4 4 7 e w ",
"w , 4 5 2 4 7 $   cXL.L.L.L.L.L.h k cXg g h g cXL.! ! L.k g g h k cXcXk j cXcXcXcXcXk g g f g cXL.L.! T T E cX  : > 1 3 3 7 e w ",
"w , 4 3 2 3 6 $   cXL.L.W E E L.h cXk h g g g h L.T T L.k h d f h k cXcXcXk cXcXcXk cXcXk k cXcXL.L.L.L.! L.cX  : , 5 5 4 7 e w ",
"w , 2 2 3 3 7 nX  cXL.Q E E E L.g cXk g g g g h L.R T L.k cXd f f cXcXf h h j cXj h h k cXcXcXh L.Q Q L.L.L.cX  : 1 2 3 2 7 e w ",
"w 5 7 7 7 7 0 MX  cXL.W E E E L.cXcXcXh g g g j L.R T L.j k h f j k j f h h j cXj g h g j cXj g L.Q Q Q L.! cX  3 4 7 7 7 7 e w ",
"w cXcXcXcXcXo.o.  cXL.L.E E E L.cXcXk cXk g g k L.T T L.d k cXf cXcXf g h g j cXj h g h j cXj h L.Q Q Q L.! cX  L.L.cXcXcXcXcXw ",
"w L.L.L.L.L.o.o.  cXL.L.! E E L.k j h k cXcXcXcXL.R W L.j cXcXcXcXcXk g h k cXcXk j g h j cXj g L.Q ! L.L.L.cX  q q L.L.L.L.L.w ",
", , , , , , 4 8   cXE ! L.L.L.L.j h g h j cXcXk L.L.L.L.cXk cXcXcXk cXcXcXcXk cXcXcXk k cXcXcXh L.L.L.L.L.L.cX  : : , , , , , , ",
"5 5 5 3 3 5 8 nX  cXE E L.L.L.L.j g g g g j cXh L.L.W L.h h j cXj h h k cXk j h k cXcXk k k cXcXL.L.! Q Q Q cX  : < < 2 3 3 4 5 ",
"4 4 3 5 4 2 8 $   cXE E ! L.E L.j g g h g k k g L.Q R L.h h j cXj g h g L.L.L.L.L.L.L.L.L.L.L.L.L.! Q Q Q Q cX  > , 1 3 3 1 4 3 ",
"3 4 3 3 3 1 7 $   cXE E L.L.E L.cXh h g h j cXh L.! R L.h g j cXj h g h L.T E L.Q W Q L.Q W Q Q L.! Q Q Q Q cX  : > 4 3 4 4 4 3 ",
"2 1 4 3 2 2 7 0   cXE E L.L.E L.cXcXk cXcXcXcXk L.W E L.h k cXcXk j g h L.T E L.W W Q L.Q W W Q L.! Q Q Q Q cX  > < 2 2 2 4 4 2 ",
"3 2 4 3 2 3 7 $   cXE E L.! E L.j cXcXcXk k cXcXL.L.L.L.cXcXk cXcXcXk k L.L.L.L.L.L.L.L.L.L.L.L.L.L.Q Q ! L.cX  : , 4 3 4 3 3 1 ",
"3 1 4 4 4 3 8 0   cX! L.L.L.! L.cXcXk k k k cXcXcXf cXcXcXk j h k cXcXk k k cXcXk cXk k cXcXcXk L.L.L.L.L.L.cX  > , 4 4 3 2 3 2 ",
"3 3 5 4 4 4 7 0   cXL.L.L.Q ! L.cXk f f f f k cXf f g cXj h h h k cXg f g h k cXk j f f g cXh g L.Q L.L.L.Q cX  : , 4 2 2 2 2 2 ",
"7 7 7 7 7 7 0 MX  cX! L.T T T L.k cXf f f j cXj f g h cXj h h h k k j f f f h cXh d f d g k j f L.W Q L.! Q cX  3 4 7 7 7 7 7 7 ",
"cXcXcXcXcXcXo.o.  cX! ! T T T L.k cXf f f cXcXf f f h cXj h h h j cXh f f f h k g f d f g cXh f L.W Q L.! Q cX  L.L.cXcXcXcXcXcX",
"L.L.L.L.L.L.o.o.  cX! L.T T T L.cXcXk g cXcXcXk cXj cXcXcXk cXk cXcXh g g g k cXg d f d g cXh g L.W Q L.! Q cX  q q L.L.L.L.L.L.",
"w , , , , , 4 8   cXL.L.! T T L.cXcXcXk k j k k k k cXcXk k cXcXcXcXcXcXk cXcXcXcXcXk j cXcXcXcXL.Q L.L.L.L.cX  : : , , , 5 L.w ",
"w , 4 3 3 5 bXnX  cXL.L.L.L.Q L.h k cXcXf d f f f k cXg h h g j cXk h h h j cXk k k cXcXcXcXk cXL.L.L.L.! L.cX  > 1 3 3 3 7 e w ",
"w , 4 3 4 3 7 0   cX! E E L.L.L.g h cXj d d d d f k cXg g g g j k h g f g h cXj g g g j cXj j j L.L.Q E E E cX  : > < 2 3 7 e w ",
"w , 4 1 2 5 bX0   cXE E E Q L.L.L.L.L.L.L.L.L.L.L.L.L.L.g g g j cXh g f L.L.L.L.h g j cXj g g g L.Q E E E E cX  : , 5 2 1 7 e w ",
"w , 3 2 3 3 bX$   cXE E E Q ! R I.I.R L.Q W Q L.Q E E L.h g g j cXh f g L.E L.L.g h j cXj g g g L.Q E E E E cX  : , 3 1 3 7 e w ",
"w , 3 3 3 3 bXbX  cXE E E Q ! T I.I.T L.Q Q W L.Q E E L.k k cXcXcXk g g L.E L.L.h g j cXj g g g L.Q E E E E cX  : , 3 3 3 7 e w ",
"w , 3 3 2 4 7 $   cXQ Q Q Q L.L.L.L.L.L.L.L.L.L.L.L.L.L.cXcXcXk k cXcXcXL.Q L.L.h k k cXcXk k k L.L.Q E E W cX  : < 3 4 4 7 e w ",
"w , 3 2 4 4 6 bX  cXL.L.L.L.L.L.g cXg k cXk k cXcXcXk cXcXh g h h k cXcXL.L.! L.k cXk k cXcXcXk L.L.L.L.L.L.cX  , 1 3 3 1 7 e w ",
"w 5 7 7 7 7 0 MX  cXL.Q E W Q L.k k f g f cXcXcXk h h j cXh g g g j cXh L.L.L.L.k j f f g cXh g L.T W L.L.L.cX  3 4 7 7 7 7 e w ",
"w cXcXcXcXcXo.o.  cXL.W E E E L.k cXf f f g cXj h h h j cXh g g g h cXh L.Q ! L.h d f d g k j f L.R R E L.Q cX  L.L.cXcXcXcXcXw ",
"w L.L.L.L.L.o.o.  cXL.E E E E L.cXk f f f g cXj g h g j cXh g g g h cXh L.E E L.g f d f g cXh f L.T R E L.Q cX  q q L.L.L.L.L.w ",
", , , , , , 4 8   cXL.W E E E L.cXk f f f k cXcXg h k cXcXcXj g g k cXcXL.E E L.g d f d g cXh g L.R R E L.Q cX  : : , , , , , , ",
"3 2 1 1 2 4 6 $   cXL.W E E E L.cXcXk k k cXcXk cXcXcXk k cXk cXk cXcXk L.E E L.cXcXk j cXcXcXcXL.R E L.L.L.cX  : , 4 3 3 3 2 2 ",
"4 4 2 4 4 5 8 0   cXL.L.L.! L.L.k k cXcXcXcXf cXcXcXk j g g k cXcXk g g L.E E L.k k cXcXcXcXk cXL.! L.L.L.L.cX  : > 4 4 4 3 4 4 ",
"3 3 3 5 2 6 8 nX  cX! L.L.L.L.L.f f f k cXf f g cXj h h g g g g cXh f f L.L.L.L.g g g j cXj j j L.L.L.W E W cX  : > 2 4 4 3 3 4 ",
"2 4 4 3 3 5 7 nX  cXE E E L.L.L.L.L.L.L.L.L.L.L.L.L.L.L.L.L.L.L.L.L.L.L.L.L.L.L.L.L.L.L.L.L.L.L.L.L.Q E E E cX  : , 3 4 3 3 2 3 ",
"2 3 < 1 4 4 7 $   cXE E E L.L.E E E L.L.E W E W E L.L.L.E T E L.Q E E E E L.L.E E E W L.L.E E E Q L.Q E E E cX  : , 3 3 3 2 4 3 ",
"3 2 1 6 4 2 6 bX  cXE E W L.! E E E L.L.E W E W Q L.L.T R T E L.Q E E E E ! L.E E E E L.L.E E E Q L.Q E E Q cX  : , 3 3 3 4 4 3 ",
"2 3 4 5 4 2 7 bX  cXE Q L.L.L.E E E ! L.W W E W L.L.E T R T E L.W E E E E L.L.L.E E W L.Q E E E Q L.Q ! L.L.cX  : > 3 2 3 3 2 3 ",
"7 7 7 7 7 7 bX$   cXL.L.L.L.L.L.E E ! L.L.L.L.L.L.L.R T R T E L.Q E E W ! L.L.L.L.! L.L.L.E E E L.L.L.L.L.Q cX  3 4 7 7 7 7 7 7 ",
"cXcXcXcXcXcXo.o.  cXcXcXcXcXcXcXcXcXcXcXcXcXcXcXcXcXcXcXcXcXcXcXcXcXcXcXcXcXcXcXcXcXcXcXcXcXcXcXcXcXcXcXcXcXcX  L.L.cXcXcXcXcXcX",
"L.L.L.L.L.L.L.L.                                                                                                q MXL.L.L.L.L.L.",
"w , , , , , , > > : : : : : : : : : : : : : : : : : : : : < q w w : : : : : : : : : : : : : : : : : : : : : : : : : , , , 5 L.w ",
"w , 5 4 3 2 2 2 2 3 1 > 2 , , , > , > , , < 3 < < > < , < 4 w w w : , < , > > , < > < > , < < > < < > , , < < , > < 3 3 3 7 e w ",
"w , 3 3 5 3 6 3 3 3 4 4 3 3 3 2 3 3 3 3 3 4 4 5 5 5 5 4 4 7 e w w , 3 2 3 3 4 3 3 3 2 2 3 4 3 2 3 2 3 3 2 3 2 1 3 2 3 3 3 7 e w ",
"w , 3 5 4 3 6 5 3 3 6 3 3 2 2 3 5 3 4 3 4 6 7 5 5 4 5 3 4 7 e w w , 4 3 3 3 3 4 3 3 3 4 3 3 2 2 2 3 4 3 3 4 3 2 3 3 3 2 2 7 e w ",
"w , 4 4 3 3 3 1 1 5 4 2 3 2 2 3 2 4 4 4 4 5 5 4 5 4 6 5 3 7 e w w , 3 3 3 4 5 4 3 4 4 3 3 3 3 3 2 3 3 3 4 2 3 1 3 2 4 4 3 7 e w ",
"w , 3 5 3 4 3 3 4 5 3 3 3 2 2 4 3 6 5 5 4 4 5 4 3 3 3 4 3 7 e w w , 3 3 4 4 4 4 4 4 4 4 3 3 5 3 3 3 4 4 3 4 2 2 4 3 3 3 3 7 e w ",
"w , 4 3 , 2 3 3 3 4 1 4 5 2 5 8 6 5 4 4 2 3 3 4 3 3 4 4 3 7 e w w , 3 2 6 5 4 5 4 3 4 3 3 3 4 4 4 4 4 3 2 2 3 3 2 3 5 4 3 7 e w ",
"w 5 7 7 7 7 7 7 7 7 7 7 7 7 7 7 7 7 7 7 7 7 7 7 7 7 7 7 7 7 e w w 5 7 7 7 7 7 7 7 7 7 7 7 7 7 7 7 7 7 7 7 7 7 7 7 7 7 7 7 7 e w ",
"w cXcXcXcXcXcXcXcXcXcXcXcXcXcXcXcXcXcXcXcXcXcXcXcXcXcXcXcXcXcXw w cXcXcXcXcXcXcXcXcXcXcXcXcXcXcXcXcXcXcXcXcXcXcXcXcXcXcXcXcXcXw "
};
